<mxfile host="app.diagrams.net" modified="2024-02-10T06:45:03.855Z" agent="Mozilla/5.0 (Windows NT 10.0; Win64; x64) AppleWebKit/537.36 (KHTML, like Gecko) Chrome/121.0.0.0 Safari/537.36" etag="P93CL5Cqu8ighwU3HzK7" version="23.1.2" type="github">
  <diagram name="Page-1" id="SvKqT5arxqWFX1tYCGlH">
    <mxGraphModel dx="1167" dy="589" grid="1" gridSize="10" guides="1" tooltips="1" connect="1" arrows="1" fold="1" page="1" pageScale="1" pageWidth="850" pageHeight="1100" math="0" shadow="0">
      <root>
        <mxCell id="0" />
        <mxCell id="1" parent="0" />
        <mxCell id="M3UdXO_pWs5fciGfKBCQ-11" value="" style="group" vertex="1" connectable="0" parent="1">
          <mxGeometry x="600" y="100" width="580" height="60" as="geometry" />
        </mxCell>
        <mxCell id="M3UdXO_pWs5fciGfKBCQ-1" value="" style="rounded=0;whiteSpace=wrap;html=1;" vertex="1" parent="M3UdXO_pWs5fciGfKBCQ-11">
          <mxGeometry width="580" height="60" as="geometry" />
        </mxCell>
        <mxCell id="M3UdXO_pWs5fciGfKBCQ-2" value="" style="ellipse;whiteSpace=wrap;html=1;aspect=fixed;" vertex="1" parent="M3UdXO_pWs5fciGfKBCQ-11">
          <mxGeometry x="23.2" y="10" width="40" height="40" as="geometry" />
        </mxCell>
        <mxCell id="M3UdXO_pWs5fciGfKBCQ-3" value="" style="ellipse;whiteSpace=wrap;html=1;aspect=fixed;" vertex="1" parent="M3UdXO_pWs5fciGfKBCQ-11">
          <mxGeometry x="92.8" y="10" width="40" height="40" as="geometry" />
        </mxCell>
        <mxCell id="M3UdXO_pWs5fciGfKBCQ-5" value="" style="ellipse;whiteSpace=wrap;html=1;aspect=fixed;" vertex="1" parent="M3UdXO_pWs5fciGfKBCQ-11">
          <mxGeometry x="162.39999999999998" y="10" width="40" height="40" as="geometry" />
        </mxCell>
        <mxCell id="M3UdXO_pWs5fciGfKBCQ-6" value="" style="ellipse;whiteSpace=wrap;html=1;aspect=fixed;" vertex="1" parent="M3UdXO_pWs5fciGfKBCQ-11">
          <mxGeometry x="231.99999999999997" y="10" width="40" height="40" as="geometry" />
        </mxCell>
        <mxCell id="M3UdXO_pWs5fciGfKBCQ-7" value="" style="ellipse;whiteSpace=wrap;html=1;aspect=fixed;" vertex="1" parent="M3UdXO_pWs5fciGfKBCQ-11">
          <mxGeometry x="301.59999999999997" y="10" width="40" height="40" as="geometry" />
        </mxCell>
        <mxCell id="M3UdXO_pWs5fciGfKBCQ-8" value="" style="ellipse;whiteSpace=wrap;html=1;aspect=fixed;" vertex="1" parent="M3UdXO_pWs5fciGfKBCQ-11">
          <mxGeometry x="371.2" y="10" width="40" height="40" as="geometry" />
        </mxCell>
        <mxCell id="M3UdXO_pWs5fciGfKBCQ-9" value="" style="ellipse;whiteSpace=wrap;html=1;aspect=fixed;" vertex="1" parent="M3UdXO_pWs5fciGfKBCQ-11">
          <mxGeometry x="440.79999999999995" y="10" width="40" height="40" as="geometry" />
        </mxCell>
        <mxCell id="M3UdXO_pWs5fciGfKBCQ-10" value="" style="ellipse;whiteSpace=wrap;html=1;aspect=fixed;" vertex="1" parent="M3UdXO_pWs5fciGfKBCQ-11">
          <mxGeometry x="510.4" y="10" width="40" height="40" as="geometry" />
        </mxCell>
        <mxCell id="M3UdXO_pWs5fciGfKBCQ-12" value="1" style="text;html=1;strokeColor=none;fillColor=none;align=center;verticalAlign=middle;whiteSpace=wrap;rounded=0;" vertex="1" parent="M3UdXO_pWs5fciGfKBCQ-11">
          <mxGeometry x="8.6" y="15" width="69.6" height="30" as="geometry" />
        </mxCell>
        <mxCell id="M3UdXO_pWs5fciGfKBCQ-13" value="2" style="text;html=1;strokeColor=none;fillColor=none;align=center;verticalAlign=middle;whiteSpace=wrap;rounded=0;" vertex="1" parent="M3UdXO_pWs5fciGfKBCQ-11">
          <mxGeometry x="78.19999999999999" y="15" width="69.6" height="30" as="geometry" />
        </mxCell>
        <mxCell id="M3UdXO_pWs5fciGfKBCQ-14" value="3" style="text;html=1;strokeColor=none;fillColor=none;align=center;verticalAlign=middle;whiteSpace=wrap;rounded=0;" vertex="1" parent="M3UdXO_pWs5fciGfKBCQ-11">
          <mxGeometry x="147.79999999999998" y="15" width="69.6" height="30" as="geometry" />
        </mxCell>
        <mxCell id="M3UdXO_pWs5fciGfKBCQ-15" value="4" style="text;html=1;strokeColor=none;fillColor=none;align=center;verticalAlign=middle;whiteSpace=wrap;rounded=0;" vertex="1" parent="M3UdXO_pWs5fciGfKBCQ-11">
          <mxGeometry x="217.39999999999998" y="15" width="69.6" height="30" as="geometry" />
        </mxCell>
        <mxCell id="M3UdXO_pWs5fciGfKBCQ-16" value="5" style="text;html=1;strokeColor=none;fillColor=none;align=center;verticalAlign=middle;whiteSpace=wrap;rounded=0;" vertex="1" parent="M3UdXO_pWs5fciGfKBCQ-11">
          <mxGeometry x="287" y="15" width="69.6" height="30" as="geometry" />
        </mxCell>
        <mxCell id="M3UdXO_pWs5fciGfKBCQ-17" value="6" style="text;html=1;strokeColor=none;fillColor=none;align=center;verticalAlign=middle;whiteSpace=wrap;rounded=0;" vertex="1" parent="M3UdXO_pWs5fciGfKBCQ-11">
          <mxGeometry x="356.59999999999997" y="15" width="69.6" height="30" as="geometry" />
        </mxCell>
        <mxCell id="M3UdXO_pWs5fciGfKBCQ-18" value="7" style="text;html=1;strokeColor=none;fillColor=none;align=center;verticalAlign=middle;whiteSpace=wrap;rounded=0;" vertex="1" parent="M3UdXO_pWs5fciGfKBCQ-11">
          <mxGeometry x="426.2" y="15" width="69.6" height="30" as="geometry" />
        </mxCell>
        <mxCell id="M3UdXO_pWs5fciGfKBCQ-20" value="" style="group" vertex="1" connectable="0" parent="1">
          <mxGeometry x="50" y="55" width="500" height="60" as="geometry" />
        </mxCell>
        <mxCell id="M3UdXO_pWs5fciGfKBCQ-21" value="" style="rounded=0;whiteSpace=wrap;html=1;" vertex="1" parent="M3UdXO_pWs5fciGfKBCQ-20">
          <mxGeometry width="500" height="60" as="geometry" />
        </mxCell>
        <mxCell id="M3UdXO_pWs5fciGfKBCQ-22" value="" style="ellipse;whiteSpace=wrap;html=1;aspect=fixed;" vertex="1" parent="M3UdXO_pWs5fciGfKBCQ-20">
          <mxGeometry x="20" y="10" width="40" height="40" as="geometry" />
        </mxCell>
        <mxCell id="M3UdXO_pWs5fciGfKBCQ-23" value="" style="ellipse;whiteSpace=wrap;html=1;aspect=fixed;" vertex="1" parent="M3UdXO_pWs5fciGfKBCQ-20">
          <mxGeometry x="80" y="10" width="40" height="40" as="geometry" />
        </mxCell>
        <mxCell id="M3UdXO_pWs5fciGfKBCQ-24" value="" style="ellipse;whiteSpace=wrap;html=1;aspect=fixed;" vertex="1" parent="M3UdXO_pWs5fciGfKBCQ-20">
          <mxGeometry x="140" y="10" width="40" height="40" as="geometry" />
        </mxCell>
        <mxCell id="M3UdXO_pWs5fciGfKBCQ-25" value="" style="ellipse;whiteSpace=wrap;html=1;aspect=fixed;" vertex="1" parent="M3UdXO_pWs5fciGfKBCQ-20">
          <mxGeometry x="200" y="10" width="40" height="40" as="geometry" />
        </mxCell>
        <mxCell id="M3UdXO_pWs5fciGfKBCQ-26" value="" style="ellipse;whiteSpace=wrap;html=1;aspect=fixed;" vertex="1" parent="M3UdXO_pWs5fciGfKBCQ-20">
          <mxGeometry x="260" y="10" width="40" height="40" as="geometry" />
        </mxCell>
        <mxCell id="M3UdXO_pWs5fciGfKBCQ-27" value="" style="ellipse;whiteSpace=wrap;html=1;aspect=fixed;" vertex="1" parent="M3UdXO_pWs5fciGfKBCQ-20">
          <mxGeometry x="320" y="10" width="40" height="40" as="geometry" />
        </mxCell>
        <mxCell id="M3UdXO_pWs5fciGfKBCQ-28" value="" style="ellipse;whiteSpace=wrap;html=1;aspect=fixed;" vertex="1" parent="M3UdXO_pWs5fciGfKBCQ-20">
          <mxGeometry x="380" y="10" width="40" height="40" as="geometry" />
        </mxCell>
        <mxCell id="M3UdXO_pWs5fciGfKBCQ-29" value="" style="ellipse;whiteSpace=wrap;html=1;aspect=fixed;" vertex="1" parent="M3UdXO_pWs5fciGfKBCQ-20">
          <mxGeometry x="440" y="10" width="40" height="40" as="geometry" />
        </mxCell>
        <mxCell id="M3UdXO_pWs5fciGfKBCQ-30" value="9" style="text;html=1;strokeColor=none;fillColor=none;align=center;verticalAlign=middle;whiteSpace=wrap;rounded=0;" vertex="1" parent="M3UdXO_pWs5fciGfKBCQ-20">
          <mxGeometry x="10" y="15" width="60" height="30" as="geometry" />
        </mxCell>
        <mxCell id="M3UdXO_pWs5fciGfKBCQ-31" value="10" style="text;html=1;strokeColor=none;fillColor=none;align=center;verticalAlign=middle;whiteSpace=wrap;rounded=0;" vertex="1" parent="M3UdXO_pWs5fciGfKBCQ-20">
          <mxGeometry x="70" y="15" width="60" height="30" as="geometry" />
        </mxCell>
        <mxCell id="M3UdXO_pWs5fciGfKBCQ-32" value="11" style="text;html=1;strokeColor=none;fillColor=none;align=center;verticalAlign=middle;whiteSpace=wrap;rounded=0;" vertex="1" parent="M3UdXO_pWs5fciGfKBCQ-20">
          <mxGeometry x="130" y="15" width="60" height="30" as="geometry" />
        </mxCell>
        <mxCell id="M3UdXO_pWs5fciGfKBCQ-33" value="12" style="text;html=1;strokeColor=none;fillColor=none;align=center;verticalAlign=middle;whiteSpace=wrap;rounded=0;" vertex="1" parent="M3UdXO_pWs5fciGfKBCQ-20">
          <mxGeometry x="190" y="15" width="60" height="30" as="geometry" />
        </mxCell>
        <mxCell id="M3UdXO_pWs5fciGfKBCQ-357" style="edgeStyle=orthogonalEdgeStyle;rounded=0;orthogonalLoop=1;jettySize=auto;html=1;exitX=0;exitY=0;exitDx=0;exitDy=0;" edge="1" parent="M3UdXO_pWs5fciGfKBCQ-20" source="M3UdXO_pWs5fciGfKBCQ-34">
          <mxGeometry relative="1" as="geometry">
            <mxPoint x="250" y="-40" as="targetPoint" />
          </mxGeometry>
        </mxCell>
        <mxCell id="M3UdXO_pWs5fciGfKBCQ-358" style="edgeStyle=orthogonalEdgeStyle;rounded=0;orthogonalLoop=1;jettySize=auto;html=1;exitX=0;exitY=0;exitDx=0;exitDy=0;" edge="1" parent="M3UdXO_pWs5fciGfKBCQ-20" source="M3UdXO_pWs5fciGfKBCQ-36">
          <mxGeometry relative="1" as="geometry">
            <mxPoint x="360" y="-30" as="targetPoint" />
          </mxGeometry>
        </mxCell>
        <mxCell id="M3UdXO_pWs5fciGfKBCQ-36" value="15" style="text;html=1;strokeColor=none;fillColor=none;align=center;verticalAlign=middle;whiteSpace=wrap;rounded=0;" vertex="1" parent="M3UdXO_pWs5fciGfKBCQ-20">
          <mxGeometry x="370" y="15" width="60" height="30" as="geometry" />
        </mxCell>
        <mxCell id="M3UdXO_pWs5fciGfKBCQ-37" value="16" style="text;html=1;strokeColor=none;fillColor=none;align=center;verticalAlign=middle;whiteSpace=wrap;rounded=0;" vertex="1" parent="M3UdXO_pWs5fciGfKBCQ-20">
          <mxGeometry x="430" y="15" width="60" height="30" as="geometry" />
        </mxCell>
        <mxCell id="M3UdXO_pWs5fciGfKBCQ-38" value="" style="group" vertex="1" connectable="0" parent="1">
          <mxGeometry x="600" y="160" width="580" height="60" as="geometry" />
        </mxCell>
        <mxCell id="M3UdXO_pWs5fciGfKBCQ-39" value="" style="rounded=0;whiteSpace=wrap;html=1;" vertex="1" parent="M3UdXO_pWs5fciGfKBCQ-38">
          <mxGeometry width="580" height="60" as="geometry" />
        </mxCell>
        <mxCell id="M3UdXO_pWs5fciGfKBCQ-40" value="" style="ellipse;whiteSpace=wrap;html=1;aspect=fixed;" vertex="1" parent="M3UdXO_pWs5fciGfKBCQ-38">
          <mxGeometry x="23.2" y="10" width="40" height="40" as="geometry" />
        </mxCell>
        <mxCell id="M3UdXO_pWs5fciGfKBCQ-41" value="" style="ellipse;whiteSpace=wrap;html=1;aspect=fixed;" vertex="1" parent="M3UdXO_pWs5fciGfKBCQ-38">
          <mxGeometry x="92.8" y="10" width="40" height="40" as="geometry" />
        </mxCell>
        <mxCell id="M3UdXO_pWs5fciGfKBCQ-42" value="" style="ellipse;whiteSpace=wrap;html=1;aspect=fixed;" vertex="1" parent="M3UdXO_pWs5fciGfKBCQ-38">
          <mxGeometry x="162.39999999999998" y="10" width="40" height="40" as="geometry" />
        </mxCell>
        <mxCell id="M3UdXO_pWs5fciGfKBCQ-43" value="" style="ellipse;whiteSpace=wrap;html=1;aspect=fixed;" vertex="1" parent="M3UdXO_pWs5fciGfKBCQ-38">
          <mxGeometry x="231.99999999999997" y="10" width="40" height="40" as="geometry" />
        </mxCell>
        <mxCell id="M3UdXO_pWs5fciGfKBCQ-44" value="" style="ellipse;whiteSpace=wrap;html=1;aspect=fixed;" vertex="1" parent="M3UdXO_pWs5fciGfKBCQ-38">
          <mxGeometry x="301.59999999999997" y="10" width="40" height="40" as="geometry" />
        </mxCell>
        <mxCell id="M3UdXO_pWs5fciGfKBCQ-45" value="" style="ellipse;whiteSpace=wrap;html=1;aspect=fixed;" vertex="1" parent="M3UdXO_pWs5fciGfKBCQ-38">
          <mxGeometry x="371.2" y="10" width="40" height="40" as="geometry" />
        </mxCell>
        <mxCell id="M3UdXO_pWs5fciGfKBCQ-46" value="" style="ellipse;whiteSpace=wrap;html=1;aspect=fixed;" vertex="1" parent="M3UdXO_pWs5fciGfKBCQ-38">
          <mxGeometry x="440.79999999999995" y="10" width="40" height="40" as="geometry" />
        </mxCell>
        <mxCell id="M3UdXO_pWs5fciGfKBCQ-47" value="" style="ellipse;whiteSpace=wrap;html=1;aspect=fixed;" vertex="1" parent="M3UdXO_pWs5fciGfKBCQ-38">
          <mxGeometry x="510.4" y="10" width="40" height="40" as="geometry" />
        </mxCell>
        <mxCell id="M3UdXO_pWs5fciGfKBCQ-48" value="17" style="text;html=1;strokeColor=none;fillColor=none;align=center;verticalAlign=middle;whiteSpace=wrap;rounded=0;" vertex="1" parent="M3UdXO_pWs5fciGfKBCQ-38">
          <mxGeometry x="8.6" y="15" width="69.6" height="30" as="geometry" />
        </mxCell>
        <mxCell id="M3UdXO_pWs5fciGfKBCQ-49" value="18" style="text;html=1;strokeColor=none;fillColor=none;align=center;verticalAlign=middle;whiteSpace=wrap;rounded=0;" vertex="1" parent="M3UdXO_pWs5fciGfKBCQ-38">
          <mxGeometry x="78.19999999999999" y="15" width="69.6" height="30" as="geometry" />
        </mxCell>
        <mxCell id="M3UdXO_pWs5fciGfKBCQ-50" value="19" style="text;html=1;strokeColor=none;fillColor=none;align=center;verticalAlign=middle;whiteSpace=wrap;rounded=0;" vertex="1" parent="M3UdXO_pWs5fciGfKBCQ-38">
          <mxGeometry x="147.79999999999998" y="15" width="69.6" height="30" as="geometry" />
        </mxCell>
        <mxCell id="M3UdXO_pWs5fciGfKBCQ-51" value="20" style="text;html=1;strokeColor=none;fillColor=none;align=center;verticalAlign=middle;whiteSpace=wrap;rounded=0;" vertex="1" parent="M3UdXO_pWs5fciGfKBCQ-38">
          <mxGeometry x="217.39999999999998" y="15" width="69.6" height="30" as="geometry" />
        </mxCell>
        <mxCell id="M3UdXO_pWs5fciGfKBCQ-52" value="21" style="text;html=1;strokeColor=none;fillColor=none;align=center;verticalAlign=middle;whiteSpace=wrap;rounded=0;" vertex="1" parent="M3UdXO_pWs5fciGfKBCQ-38">
          <mxGeometry x="287" y="15" width="69.6" height="30" as="geometry" />
        </mxCell>
        <mxCell id="M3UdXO_pWs5fciGfKBCQ-53" value="22" style="text;html=1;strokeColor=none;fillColor=none;align=center;verticalAlign=middle;whiteSpace=wrap;rounded=0;" vertex="1" parent="M3UdXO_pWs5fciGfKBCQ-38">
          <mxGeometry x="356.59999999999997" y="15" width="69.6" height="30" as="geometry" />
        </mxCell>
        <mxCell id="M3UdXO_pWs5fciGfKBCQ-54" value="23" style="text;html=1;strokeColor=none;fillColor=none;align=center;verticalAlign=middle;whiteSpace=wrap;rounded=0;" vertex="1" parent="M3UdXO_pWs5fciGfKBCQ-38">
          <mxGeometry x="426.2" y="15" width="69.6" height="30" as="geometry" />
        </mxCell>
        <mxCell id="M3UdXO_pWs5fciGfKBCQ-55" value="24" style="text;html=1;strokeColor=none;fillColor=none;align=center;verticalAlign=middle;whiteSpace=wrap;rounded=0;" vertex="1" parent="M3UdXO_pWs5fciGfKBCQ-38">
          <mxGeometry x="495.79999999999995" y="15" width="69.6" height="30" as="geometry" />
        </mxCell>
        <mxCell id="M3UdXO_pWs5fciGfKBCQ-56" value="" style="group" vertex="1" connectable="0" parent="1">
          <mxGeometry x="600" y="220" width="580" height="60" as="geometry" />
        </mxCell>
        <mxCell id="M3UdXO_pWs5fciGfKBCQ-57" value="" style="rounded=0;whiteSpace=wrap;html=1;" vertex="1" parent="M3UdXO_pWs5fciGfKBCQ-56">
          <mxGeometry width="580" height="60" as="geometry" />
        </mxCell>
        <mxCell id="M3UdXO_pWs5fciGfKBCQ-58" value="" style="ellipse;whiteSpace=wrap;html=1;aspect=fixed;" vertex="1" parent="M3UdXO_pWs5fciGfKBCQ-56">
          <mxGeometry x="23.2" y="10" width="40" height="40" as="geometry" />
        </mxCell>
        <mxCell id="M3UdXO_pWs5fciGfKBCQ-59" value="" style="ellipse;whiteSpace=wrap;html=1;aspect=fixed;" vertex="1" parent="M3UdXO_pWs5fciGfKBCQ-56">
          <mxGeometry x="92.8" y="10" width="40" height="40" as="geometry" />
        </mxCell>
        <mxCell id="M3UdXO_pWs5fciGfKBCQ-60" value="" style="ellipse;whiteSpace=wrap;html=1;aspect=fixed;" vertex="1" parent="M3UdXO_pWs5fciGfKBCQ-56">
          <mxGeometry x="162.39999999999998" y="10" width="40" height="40" as="geometry" />
        </mxCell>
        <mxCell id="M3UdXO_pWs5fciGfKBCQ-61" value="" style="ellipse;whiteSpace=wrap;html=1;aspect=fixed;" vertex="1" parent="M3UdXO_pWs5fciGfKBCQ-56">
          <mxGeometry x="231.99999999999997" y="10" width="40" height="40" as="geometry" />
        </mxCell>
        <mxCell id="M3UdXO_pWs5fciGfKBCQ-62" value="" style="ellipse;whiteSpace=wrap;html=1;aspect=fixed;" vertex="1" parent="M3UdXO_pWs5fciGfKBCQ-56">
          <mxGeometry x="301.59999999999997" y="10" width="40" height="40" as="geometry" />
        </mxCell>
        <mxCell id="M3UdXO_pWs5fciGfKBCQ-63" value="" style="ellipse;whiteSpace=wrap;html=1;aspect=fixed;" vertex="1" parent="M3UdXO_pWs5fciGfKBCQ-56">
          <mxGeometry x="371.2" y="10" width="40" height="40" as="geometry" />
        </mxCell>
        <mxCell id="M3UdXO_pWs5fciGfKBCQ-64" value="" style="ellipse;whiteSpace=wrap;html=1;aspect=fixed;" vertex="1" parent="M3UdXO_pWs5fciGfKBCQ-56">
          <mxGeometry x="440.79999999999995" y="10" width="40" height="40" as="geometry" />
        </mxCell>
        <mxCell id="M3UdXO_pWs5fciGfKBCQ-65" value="" style="ellipse;whiteSpace=wrap;html=1;aspect=fixed;" vertex="1" parent="M3UdXO_pWs5fciGfKBCQ-56">
          <mxGeometry x="510.4" y="10" width="40" height="40" as="geometry" />
        </mxCell>
        <mxCell id="M3UdXO_pWs5fciGfKBCQ-66" value="25" style="text;html=1;strokeColor=none;fillColor=none;align=center;verticalAlign=middle;whiteSpace=wrap;rounded=0;" vertex="1" parent="M3UdXO_pWs5fciGfKBCQ-56">
          <mxGeometry x="8.6" y="15" width="69.6" height="30" as="geometry" />
        </mxCell>
        <mxCell id="M3UdXO_pWs5fciGfKBCQ-67" value="26" style="text;html=1;strokeColor=none;fillColor=none;align=center;verticalAlign=middle;whiteSpace=wrap;rounded=0;" vertex="1" parent="M3UdXO_pWs5fciGfKBCQ-56">
          <mxGeometry x="78.19999999999999" y="15" width="69.6" height="30" as="geometry" />
        </mxCell>
        <mxCell id="M3UdXO_pWs5fciGfKBCQ-68" value="27" style="text;html=1;strokeColor=none;fillColor=none;align=center;verticalAlign=middle;whiteSpace=wrap;rounded=0;" vertex="1" parent="M3UdXO_pWs5fciGfKBCQ-56">
          <mxGeometry x="147.79999999999998" y="15" width="69.6" height="30" as="geometry" />
        </mxCell>
        <mxCell id="M3UdXO_pWs5fciGfKBCQ-69" value="28" style="text;html=1;strokeColor=none;fillColor=none;align=center;verticalAlign=middle;whiteSpace=wrap;rounded=0;" vertex="1" parent="M3UdXO_pWs5fciGfKBCQ-56">
          <mxGeometry x="217.39999999999998" y="15" width="69.6" height="30" as="geometry" />
        </mxCell>
        <mxCell id="M3UdXO_pWs5fciGfKBCQ-70" value="29" style="text;html=1;strokeColor=none;fillColor=none;align=center;verticalAlign=middle;whiteSpace=wrap;rounded=0;" vertex="1" parent="M3UdXO_pWs5fciGfKBCQ-56">
          <mxGeometry x="287" y="15" width="69.6" height="30" as="geometry" />
        </mxCell>
        <mxCell id="M3UdXO_pWs5fciGfKBCQ-71" value="30" style="text;html=1;strokeColor=none;fillColor=none;align=center;verticalAlign=middle;whiteSpace=wrap;rounded=0;" vertex="1" parent="M3UdXO_pWs5fciGfKBCQ-56">
          <mxGeometry x="356.59999999999997" y="15" width="69.6" height="30" as="geometry" />
        </mxCell>
        <mxCell id="M3UdXO_pWs5fciGfKBCQ-72" value="31" style="text;html=1;strokeColor=none;fillColor=none;align=center;verticalAlign=middle;whiteSpace=wrap;rounded=0;" vertex="1" parent="M3UdXO_pWs5fciGfKBCQ-56">
          <mxGeometry x="426.2" y="15" width="69.6" height="30" as="geometry" />
        </mxCell>
        <mxCell id="M3UdXO_pWs5fciGfKBCQ-73" value="32" style="text;html=1;strokeColor=none;fillColor=none;align=center;verticalAlign=middle;whiteSpace=wrap;rounded=0;" vertex="1" parent="M3UdXO_pWs5fciGfKBCQ-56">
          <mxGeometry x="495.79999999999995" y="15" width="69.6" height="30" as="geometry" />
        </mxCell>
        <mxCell id="M3UdXO_pWs5fciGfKBCQ-74" value="" style="group" vertex="1" connectable="0" parent="1">
          <mxGeometry x="600" y="280" width="580" height="60" as="geometry" />
        </mxCell>
        <mxCell id="M3UdXO_pWs5fciGfKBCQ-75" value="" style="rounded=0;whiteSpace=wrap;html=1;" vertex="1" parent="M3UdXO_pWs5fciGfKBCQ-74">
          <mxGeometry width="580" height="60" as="geometry" />
        </mxCell>
        <mxCell id="M3UdXO_pWs5fciGfKBCQ-76" value="" style="ellipse;whiteSpace=wrap;html=1;aspect=fixed;" vertex="1" parent="M3UdXO_pWs5fciGfKBCQ-74">
          <mxGeometry x="23.2" y="10" width="40" height="40" as="geometry" />
        </mxCell>
        <mxCell id="M3UdXO_pWs5fciGfKBCQ-77" value="" style="ellipse;whiteSpace=wrap;html=1;aspect=fixed;" vertex="1" parent="M3UdXO_pWs5fciGfKBCQ-74">
          <mxGeometry x="92.8" y="10" width="40" height="40" as="geometry" />
        </mxCell>
        <mxCell id="M3UdXO_pWs5fciGfKBCQ-78" value="" style="ellipse;whiteSpace=wrap;html=1;aspect=fixed;" vertex="1" parent="M3UdXO_pWs5fciGfKBCQ-74">
          <mxGeometry x="162.39999999999998" y="10" width="40" height="40" as="geometry" />
        </mxCell>
        <mxCell id="M3UdXO_pWs5fciGfKBCQ-79" value="" style="ellipse;whiteSpace=wrap;html=1;aspect=fixed;" vertex="1" parent="M3UdXO_pWs5fciGfKBCQ-74">
          <mxGeometry x="231.99999999999997" y="10" width="40" height="40" as="geometry" />
        </mxCell>
        <mxCell id="M3UdXO_pWs5fciGfKBCQ-80" value="" style="ellipse;whiteSpace=wrap;html=1;aspect=fixed;" vertex="1" parent="M3UdXO_pWs5fciGfKBCQ-74">
          <mxGeometry x="301.59999999999997" y="10" width="40" height="40" as="geometry" />
        </mxCell>
        <mxCell id="M3UdXO_pWs5fciGfKBCQ-81" value="" style="ellipse;whiteSpace=wrap;html=1;aspect=fixed;" vertex="1" parent="M3UdXO_pWs5fciGfKBCQ-74">
          <mxGeometry x="371.2" y="10" width="40" height="40" as="geometry" />
        </mxCell>
        <mxCell id="M3UdXO_pWs5fciGfKBCQ-82" value="" style="ellipse;whiteSpace=wrap;html=1;aspect=fixed;" vertex="1" parent="M3UdXO_pWs5fciGfKBCQ-74">
          <mxGeometry x="440.79999999999995" y="10" width="40" height="40" as="geometry" />
        </mxCell>
        <mxCell id="M3UdXO_pWs5fciGfKBCQ-83" value="" style="ellipse;whiteSpace=wrap;html=1;aspect=fixed;" vertex="1" parent="M3UdXO_pWs5fciGfKBCQ-74">
          <mxGeometry x="510.4" y="10" width="40" height="40" as="geometry" />
        </mxCell>
        <mxCell id="M3UdXO_pWs5fciGfKBCQ-84" value="33" style="text;html=1;strokeColor=none;fillColor=none;align=center;verticalAlign=middle;whiteSpace=wrap;rounded=0;" vertex="1" parent="M3UdXO_pWs5fciGfKBCQ-74">
          <mxGeometry x="11.6" y="15" width="69.6" height="30" as="geometry" />
        </mxCell>
        <mxCell id="M3UdXO_pWs5fciGfKBCQ-85" value="34" style="text;html=1;strokeColor=none;fillColor=none;align=center;verticalAlign=middle;whiteSpace=wrap;rounded=0;" vertex="1" parent="M3UdXO_pWs5fciGfKBCQ-74">
          <mxGeometry x="78.19999999999999" y="15" width="69.6" height="30" as="geometry" />
        </mxCell>
        <mxCell id="M3UdXO_pWs5fciGfKBCQ-86" value="35" style="text;html=1;strokeColor=none;fillColor=none;align=center;verticalAlign=middle;whiteSpace=wrap;rounded=0;" vertex="1" parent="M3UdXO_pWs5fciGfKBCQ-74">
          <mxGeometry x="147.79999999999998" y="15" width="69.6" height="30" as="geometry" />
        </mxCell>
        <mxCell id="M3UdXO_pWs5fciGfKBCQ-87" value="36" style="text;html=1;strokeColor=none;fillColor=none;align=center;verticalAlign=middle;whiteSpace=wrap;rounded=0;" vertex="1" parent="M3UdXO_pWs5fciGfKBCQ-74">
          <mxGeometry x="217.39999999999998" y="15" width="69.6" height="30" as="geometry" />
        </mxCell>
        <mxCell id="M3UdXO_pWs5fciGfKBCQ-88" value="37" style="text;html=1;strokeColor=none;fillColor=none;align=center;verticalAlign=middle;whiteSpace=wrap;rounded=0;" vertex="1" parent="M3UdXO_pWs5fciGfKBCQ-74">
          <mxGeometry x="287" y="15" width="69.6" height="30" as="geometry" />
        </mxCell>
        <mxCell id="M3UdXO_pWs5fciGfKBCQ-89" value="38" style="text;html=1;strokeColor=none;fillColor=none;align=center;verticalAlign=middle;whiteSpace=wrap;rounded=0;" vertex="1" parent="M3UdXO_pWs5fciGfKBCQ-74">
          <mxGeometry x="356.59999999999997" y="15" width="69.6" height="30" as="geometry" />
        </mxCell>
        <mxCell id="M3UdXO_pWs5fciGfKBCQ-90" value="39" style="text;html=1;strokeColor=none;fillColor=none;align=center;verticalAlign=middle;whiteSpace=wrap;rounded=0;" vertex="1" parent="M3UdXO_pWs5fciGfKBCQ-74">
          <mxGeometry x="426.2" y="15" width="69.6" height="30" as="geometry" />
        </mxCell>
        <mxCell id="M3UdXO_pWs5fciGfKBCQ-91" value="40" style="text;html=1;strokeColor=none;fillColor=none;align=center;verticalAlign=middle;whiteSpace=wrap;rounded=0;" vertex="1" parent="M3UdXO_pWs5fciGfKBCQ-74">
          <mxGeometry x="495.79999999999995" y="15" width="69.6" height="30" as="geometry" />
        </mxCell>
        <mxCell id="M3UdXO_pWs5fciGfKBCQ-92" value="" style="group" vertex="1" connectable="0" parent="1">
          <mxGeometry x="600" y="340" width="580" height="60" as="geometry" />
        </mxCell>
        <mxCell id="M3UdXO_pWs5fciGfKBCQ-93" value="" style="rounded=0;whiteSpace=wrap;html=1;" vertex="1" parent="M3UdXO_pWs5fciGfKBCQ-92">
          <mxGeometry width="580" height="60" as="geometry" />
        </mxCell>
        <mxCell id="M3UdXO_pWs5fciGfKBCQ-94" value="" style="ellipse;whiteSpace=wrap;html=1;aspect=fixed;" vertex="1" parent="M3UdXO_pWs5fciGfKBCQ-92">
          <mxGeometry x="23.2" y="10" width="40" height="40" as="geometry" />
        </mxCell>
        <mxCell id="M3UdXO_pWs5fciGfKBCQ-95" value="" style="ellipse;whiteSpace=wrap;html=1;aspect=fixed;" vertex="1" parent="M3UdXO_pWs5fciGfKBCQ-92">
          <mxGeometry x="92.8" y="10" width="40" height="40" as="geometry" />
        </mxCell>
        <mxCell id="M3UdXO_pWs5fciGfKBCQ-96" value="" style="ellipse;whiteSpace=wrap;html=1;aspect=fixed;" vertex="1" parent="M3UdXO_pWs5fciGfKBCQ-92">
          <mxGeometry x="162.39999999999998" y="10" width="40" height="40" as="geometry" />
        </mxCell>
        <mxCell id="M3UdXO_pWs5fciGfKBCQ-97" value="" style="ellipse;whiteSpace=wrap;html=1;aspect=fixed;" vertex="1" parent="M3UdXO_pWs5fciGfKBCQ-92">
          <mxGeometry x="231.99999999999997" y="10" width="40" height="40" as="geometry" />
        </mxCell>
        <mxCell id="M3UdXO_pWs5fciGfKBCQ-98" value="" style="ellipse;whiteSpace=wrap;html=1;aspect=fixed;" vertex="1" parent="M3UdXO_pWs5fciGfKBCQ-92">
          <mxGeometry x="301.59999999999997" y="10" width="40" height="40" as="geometry" />
        </mxCell>
        <mxCell id="M3UdXO_pWs5fciGfKBCQ-99" value="" style="ellipse;whiteSpace=wrap;html=1;aspect=fixed;" vertex="1" parent="M3UdXO_pWs5fciGfKBCQ-92">
          <mxGeometry x="371.2" y="10" width="40" height="40" as="geometry" />
        </mxCell>
        <mxCell id="M3UdXO_pWs5fciGfKBCQ-100" value="" style="ellipse;whiteSpace=wrap;html=1;aspect=fixed;" vertex="1" parent="M3UdXO_pWs5fciGfKBCQ-92">
          <mxGeometry x="440.79999999999995" y="10" width="40" height="40" as="geometry" />
        </mxCell>
        <mxCell id="M3UdXO_pWs5fciGfKBCQ-101" value="" style="ellipse;whiteSpace=wrap;html=1;aspect=fixed;" vertex="1" parent="M3UdXO_pWs5fciGfKBCQ-92">
          <mxGeometry x="510.4" y="10" width="40" height="40" as="geometry" />
        </mxCell>
        <mxCell id="M3UdXO_pWs5fciGfKBCQ-102" value="41" style="text;html=1;strokeColor=none;fillColor=none;align=center;verticalAlign=middle;whiteSpace=wrap;rounded=0;" vertex="1" parent="M3UdXO_pWs5fciGfKBCQ-92">
          <mxGeometry x="8.6" y="15" width="69.6" height="30" as="geometry" />
        </mxCell>
        <mxCell id="M3UdXO_pWs5fciGfKBCQ-103" value="42" style="text;html=1;strokeColor=none;fillColor=none;align=center;verticalAlign=middle;whiteSpace=wrap;rounded=0;" vertex="1" parent="M3UdXO_pWs5fciGfKBCQ-92">
          <mxGeometry x="78.19999999999999" y="15" width="69.6" height="30" as="geometry" />
        </mxCell>
        <mxCell id="M3UdXO_pWs5fciGfKBCQ-104" value="43" style="text;html=1;strokeColor=none;fillColor=none;align=center;verticalAlign=middle;whiteSpace=wrap;rounded=0;" vertex="1" parent="M3UdXO_pWs5fciGfKBCQ-92">
          <mxGeometry x="147.79999999999998" y="15" width="69.6" height="30" as="geometry" />
        </mxCell>
        <mxCell id="M3UdXO_pWs5fciGfKBCQ-105" value="44" style="text;html=1;strokeColor=none;fillColor=none;align=center;verticalAlign=middle;whiteSpace=wrap;rounded=0;" vertex="1" parent="M3UdXO_pWs5fciGfKBCQ-92">
          <mxGeometry x="217.39999999999998" y="15" width="69.6" height="30" as="geometry" />
        </mxCell>
        <mxCell id="M3UdXO_pWs5fciGfKBCQ-106" value="45" style="text;html=1;strokeColor=none;fillColor=none;align=center;verticalAlign=middle;whiteSpace=wrap;rounded=0;" vertex="1" parent="M3UdXO_pWs5fciGfKBCQ-92">
          <mxGeometry x="287" y="15" width="69.6" height="30" as="geometry" />
        </mxCell>
        <mxCell id="M3UdXO_pWs5fciGfKBCQ-107" value="46" style="text;html=1;strokeColor=none;fillColor=none;align=center;verticalAlign=middle;whiteSpace=wrap;rounded=0;" vertex="1" parent="M3UdXO_pWs5fciGfKBCQ-92">
          <mxGeometry x="356.59999999999997" y="15" width="69.6" height="30" as="geometry" />
        </mxCell>
        <mxCell id="M3UdXO_pWs5fciGfKBCQ-108" value="47" style="text;html=1;strokeColor=none;fillColor=none;align=center;verticalAlign=middle;whiteSpace=wrap;rounded=0;" vertex="1" parent="M3UdXO_pWs5fciGfKBCQ-92">
          <mxGeometry x="426.2" y="15" width="69.6" height="30" as="geometry" />
        </mxCell>
        <mxCell id="M3UdXO_pWs5fciGfKBCQ-109" value="48" style="text;html=1;strokeColor=none;fillColor=none;align=center;verticalAlign=middle;whiteSpace=wrap;rounded=0;" vertex="1" parent="M3UdXO_pWs5fciGfKBCQ-92">
          <mxGeometry x="495.79999999999995" y="15" width="69.6" height="30" as="geometry" />
        </mxCell>
        <mxCell id="M3UdXO_pWs5fciGfKBCQ-111" value="" style="group" vertex="1" connectable="0" parent="1">
          <mxGeometry x="600" y="520" width="580" height="60" as="geometry" />
        </mxCell>
        <mxCell id="M3UdXO_pWs5fciGfKBCQ-112" value="" style="rounded=0;whiteSpace=wrap;html=1;" vertex="1" parent="M3UdXO_pWs5fciGfKBCQ-111">
          <mxGeometry width="580" height="60" as="geometry" />
        </mxCell>
        <mxCell id="M3UdXO_pWs5fciGfKBCQ-113" value="" style="ellipse;whiteSpace=wrap;html=1;aspect=fixed;" vertex="1" parent="M3UdXO_pWs5fciGfKBCQ-111">
          <mxGeometry x="23.2" y="10" width="40" height="40" as="geometry" />
        </mxCell>
        <mxCell id="M3UdXO_pWs5fciGfKBCQ-114" value="" style="ellipse;whiteSpace=wrap;html=1;aspect=fixed;" vertex="1" parent="M3UdXO_pWs5fciGfKBCQ-111">
          <mxGeometry x="92.8" y="10" width="40" height="40" as="geometry" />
        </mxCell>
        <mxCell id="M3UdXO_pWs5fciGfKBCQ-115" value="" style="ellipse;whiteSpace=wrap;html=1;aspect=fixed;" vertex="1" parent="M3UdXO_pWs5fciGfKBCQ-111">
          <mxGeometry x="162.39999999999998" y="10" width="40" height="40" as="geometry" />
        </mxCell>
        <mxCell id="M3UdXO_pWs5fciGfKBCQ-116" value="" style="ellipse;whiteSpace=wrap;html=1;aspect=fixed;" vertex="1" parent="M3UdXO_pWs5fciGfKBCQ-111">
          <mxGeometry x="231.99999999999997" y="10" width="40" height="40" as="geometry" />
        </mxCell>
        <mxCell id="M3UdXO_pWs5fciGfKBCQ-117" value="" style="ellipse;whiteSpace=wrap;html=1;aspect=fixed;" vertex="1" parent="M3UdXO_pWs5fciGfKBCQ-111">
          <mxGeometry x="301.59999999999997" y="10" width="40" height="40" as="geometry" />
        </mxCell>
        <mxCell id="M3UdXO_pWs5fciGfKBCQ-118" value="" style="ellipse;whiteSpace=wrap;html=1;aspect=fixed;" vertex="1" parent="M3UdXO_pWs5fciGfKBCQ-111">
          <mxGeometry x="371.2" y="10" width="40" height="40" as="geometry" />
        </mxCell>
        <mxCell id="M3UdXO_pWs5fciGfKBCQ-119" value="" style="ellipse;whiteSpace=wrap;html=1;aspect=fixed;" vertex="1" parent="M3UdXO_pWs5fciGfKBCQ-111">
          <mxGeometry x="440.79999999999995" y="10" width="40" height="40" as="geometry" />
        </mxCell>
        <mxCell id="M3UdXO_pWs5fciGfKBCQ-120" value="" style="ellipse;whiteSpace=wrap;html=1;aspect=fixed;" vertex="1" parent="M3UdXO_pWs5fciGfKBCQ-111">
          <mxGeometry x="510.4" y="10" width="40" height="40" as="geometry" />
        </mxCell>
        <mxCell id="M3UdXO_pWs5fciGfKBCQ-121" value="65" style="text;html=1;strokeColor=none;fillColor=none;align=center;verticalAlign=middle;whiteSpace=wrap;rounded=0;" vertex="1" parent="M3UdXO_pWs5fciGfKBCQ-111">
          <mxGeometry x="8.6" y="15" width="69.6" height="30" as="geometry" />
        </mxCell>
        <mxCell id="M3UdXO_pWs5fciGfKBCQ-122" value="66" style="text;html=1;strokeColor=none;fillColor=none;align=center;verticalAlign=middle;whiteSpace=wrap;rounded=0;" vertex="1" parent="M3UdXO_pWs5fciGfKBCQ-111">
          <mxGeometry x="78.19999999999999" y="15" width="69.6" height="30" as="geometry" />
        </mxCell>
        <mxCell id="M3UdXO_pWs5fciGfKBCQ-123" value="67" style="text;html=1;strokeColor=none;fillColor=none;align=center;verticalAlign=middle;whiteSpace=wrap;rounded=0;" vertex="1" parent="M3UdXO_pWs5fciGfKBCQ-111">
          <mxGeometry x="147.79999999999998" y="15" width="69.6" height="30" as="geometry" />
        </mxCell>
        <mxCell id="M3UdXO_pWs5fciGfKBCQ-124" value="68" style="text;html=1;strokeColor=none;fillColor=none;align=center;verticalAlign=middle;whiteSpace=wrap;rounded=0;" vertex="1" parent="M3UdXO_pWs5fciGfKBCQ-111">
          <mxGeometry x="217.39999999999998" y="15" width="69.6" height="30" as="geometry" />
        </mxCell>
        <mxCell id="M3UdXO_pWs5fciGfKBCQ-125" value="69" style="text;html=1;strokeColor=none;fillColor=none;align=center;verticalAlign=middle;whiteSpace=wrap;rounded=0;" vertex="1" parent="M3UdXO_pWs5fciGfKBCQ-111">
          <mxGeometry x="287" y="15" width="69.6" height="30" as="geometry" />
        </mxCell>
        <mxCell id="M3UdXO_pWs5fciGfKBCQ-126" value="70" style="text;html=1;strokeColor=none;fillColor=none;align=center;verticalAlign=middle;whiteSpace=wrap;rounded=0;" vertex="1" parent="M3UdXO_pWs5fciGfKBCQ-111">
          <mxGeometry x="356.59999999999997" y="15" width="69.6" height="30" as="geometry" />
        </mxCell>
        <mxCell id="M3UdXO_pWs5fciGfKBCQ-127" value="71" style="text;html=1;strokeColor=none;fillColor=none;align=center;verticalAlign=middle;whiteSpace=wrap;rounded=0;" vertex="1" parent="M3UdXO_pWs5fciGfKBCQ-111">
          <mxGeometry x="426.2" y="15" width="69.6" height="30" as="geometry" />
        </mxCell>
        <mxCell id="M3UdXO_pWs5fciGfKBCQ-128" value="72" style="text;html=1;strokeColor=none;fillColor=none;align=center;verticalAlign=middle;whiteSpace=wrap;rounded=0;" vertex="1" parent="M3UdXO_pWs5fciGfKBCQ-111">
          <mxGeometry x="495.79999999999995" y="15" width="69.6" height="30" as="geometry" />
        </mxCell>
        <mxCell id="M3UdXO_pWs5fciGfKBCQ-129" value="" style="group" vertex="1" connectable="0" parent="1">
          <mxGeometry x="600" y="460" width="580" height="60" as="geometry" />
        </mxCell>
        <mxCell id="M3UdXO_pWs5fciGfKBCQ-130" value="" style="rounded=0;whiteSpace=wrap;html=1;" vertex="1" parent="M3UdXO_pWs5fciGfKBCQ-129">
          <mxGeometry width="580" height="60" as="geometry" />
        </mxCell>
        <mxCell id="M3UdXO_pWs5fciGfKBCQ-131" value="" style="ellipse;whiteSpace=wrap;html=1;aspect=fixed;" vertex="1" parent="M3UdXO_pWs5fciGfKBCQ-129">
          <mxGeometry x="23.2" y="10" width="40" height="40" as="geometry" />
        </mxCell>
        <mxCell id="M3UdXO_pWs5fciGfKBCQ-132" value="" style="ellipse;whiteSpace=wrap;html=1;aspect=fixed;" vertex="1" parent="M3UdXO_pWs5fciGfKBCQ-129">
          <mxGeometry x="92.8" y="10" width="40" height="40" as="geometry" />
        </mxCell>
        <mxCell id="M3UdXO_pWs5fciGfKBCQ-133" value="" style="ellipse;whiteSpace=wrap;html=1;aspect=fixed;" vertex="1" parent="M3UdXO_pWs5fciGfKBCQ-129">
          <mxGeometry x="162.39999999999998" y="10" width="40" height="40" as="geometry" />
        </mxCell>
        <mxCell id="M3UdXO_pWs5fciGfKBCQ-134" value="" style="ellipse;whiteSpace=wrap;html=1;aspect=fixed;" vertex="1" parent="M3UdXO_pWs5fciGfKBCQ-129">
          <mxGeometry x="231.99999999999997" y="10" width="40" height="40" as="geometry" />
        </mxCell>
        <mxCell id="M3UdXO_pWs5fciGfKBCQ-135" value="" style="ellipse;whiteSpace=wrap;html=1;aspect=fixed;" vertex="1" parent="M3UdXO_pWs5fciGfKBCQ-129">
          <mxGeometry x="301.59999999999997" y="10" width="40" height="40" as="geometry" />
        </mxCell>
        <mxCell id="M3UdXO_pWs5fciGfKBCQ-136" value="" style="ellipse;whiteSpace=wrap;html=1;aspect=fixed;" vertex="1" parent="M3UdXO_pWs5fciGfKBCQ-129">
          <mxGeometry x="371.2" y="10" width="40" height="40" as="geometry" />
        </mxCell>
        <mxCell id="M3UdXO_pWs5fciGfKBCQ-137" value="" style="ellipse;whiteSpace=wrap;html=1;aspect=fixed;" vertex="1" parent="M3UdXO_pWs5fciGfKBCQ-129">
          <mxGeometry x="440.79999999999995" y="10" width="40" height="40" as="geometry" />
        </mxCell>
        <mxCell id="M3UdXO_pWs5fciGfKBCQ-138" value="" style="ellipse;whiteSpace=wrap;html=1;aspect=fixed;" vertex="1" parent="M3UdXO_pWs5fciGfKBCQ-129">
          <mxGeometry x="510.4" y="10" width="40" height="40" as="geometry" />
        </mxCell>
        <mxCell id="M3UdXO_pWs5fciGfKBCQ-139" value="57" style="text;html=1;strokeColor=none;fillColor=none;align=center;verticalAlign=middle;whiteSpace=wrap;rounded=0;" vertex="1" parent="M3UdXO_pWs5fciGfKBCQ-129">
          <mxGeometry x="8.6" y="15" width="69.6" height="30" as="geometry" />
        </mxCell>
        <mxCell id="M3UdXO_pWs5fciGfKBCQ-140" value="58" style="text;html=1;strokeColor=none;fillColor=none;align=center;verticalAlign=middle;whiteSpace=wrap;rounded=0;" vertex="1" parent="M3UdXO_pWs5fciGfKBCQ-129">
          <mxGeometry x="78.19999999999999" y="15" width="69.6" height="30" as="geometry" />
        </mxCell>
        <mxCell id="M3UdXO_pWs5fciGfKBCQ-141" value="59" style="text;html=1;strokeColor=none;fillColor=none;align=center;verticalAlign=middle;whiteSpace=wrap;rounded=0;" vertex="1" parent="M3UdXO_pWs5fciGfKBCQ-129">
          <mxGeometry x="147.79999999999998" y="15" width="69.6" height="30" as="geometry" />
        </mxCell>
        <mxCell id="M3UdXO_pWs5fciGfKBCQ-142" value="60" style="text;html=1;strokeColor=none;fillColor=none;align=center;verticalAlign=middle;whiteSpace=wrap;rounded=0;" vertex="1" parent="M3UdXO_pWs5fciGfKBCQ-129">
          <mxGeometry x="217.39999999999998" y="15" width="69.6" height="30" as="geometry" />
        </mxCell>
        <mxCell id="M3UdXO_pWs5fciGfKBCQ-143" value="61" style="text;html=1;strokeColor=none;fillColor=none;align=center;verticalAlign=middle;whiteSpace=wrap;rounded=0;" vertex="1" parent="M3UdXO_pWs5fciGfKBCQ-129">
          <mxGeometry x="287" y="15" width="69.6" height="30" as="geometry" />
        </mxCell>
        <mxCell id="M3UdXO_pWs5fciGfKBCQ-144" value="62" style="text;html=1;strokeColor=none;fillColor=none;align=center;verticalAlign=middle;whiteSpace=wrap;rounded=0;" vertex="1" parent="M3UdXO_pWs5fciGfKBCQ-129">
          <mxGeometry x="356.59999999999997" y="15" width="69.6" height="30" as="geometry" />
        </mxCell>
        <mxCell id="M3UdXO_pWs5fciGfKBCQ-145" value="63" style="text;html=1;strokeColor=none;fillColor=none;align=center;verticalAlign=middle;whiteSpace=wrap;rounded=0;" vertex="1" parent="M3UdXO_pWs5fciGfKBCQ-129">
          <mxGeometry x="426.2" y="15" width="69.6" height="30" as="geometry" />
        </mxCell>
        <mxCell id="M3UdXO_pWs5fciGfKBCQ-146" value="64" style="text;html=1;strokeColor=none;fillColor=none;align=center;verticalAlign=middle;whiteSpace=wrap;rounded=0;" vertex="1" parent="M3UdXO_pWs5fciGfKBCQ-129">
          <mxGeometry x="495.79999999999995" y="15" width="69.6" height="30" as="geometry" />
        </mxCell>
        <mxCell id="M3UdXO_pWs5fciGfKBCQ-147" value="" style="group" vertex="1" connectable="0" parent="1">
          <mxGeometry x="600" y="400" width="580" height="60" as="geometry" />
        </mxCell>
        <mxCell id="M3UdXO_pWs5fciGfKBCQ-148" value="" style="rounded=0;whiteSpace=wrap;html=1;" vertex="1" parent="M3UdXO_pWs5fciGfKBCQ-147">
          <mxGeometry width="580" height="60" as="geometry" />
        </mxCell>
        <mxCell id="M3UdXO_pWs5fciGfKBCQ-149" value="" style="ellipse;whiteSpace=wrap;html=1;aspect=fixed;" vertex="1" parent="M3UdXO_pWs5fciGfKBCQ-147">
          <mxGeometry x="23.2" y="10" width="40" height="40" as="geometry" />
        </mxCell>
        <mxCell id="M3UdXO_pWs5fciGfKBCQ-150" value="" style="ellipse;whiteSpace=wrap;html=1;aspect=fixed;" vertex="1" parent="M3UdXO_pWs5fciGfKBCQ-147">
          <mxGeometry x="92.8" y="10" width="40" height="40" as="geometry" />
        </mxCell>
        <mxCell id="M3UdXO_pWs5fciGfKBCQ-151" value="" style="ellipse;whiteSpace=wrap;html=1;aspect=fixed;" vertex="1" parent="M3UdXO_pWs5fciGfKBCQ-147">
          <mxGeometry x="162.39999999999998" y="10" width="40" height="40" as="geometry" />
        </mxCell>
        <mxCell id="M3UdXO_pWs5fciGfKBCQ-152" value="" style="ellipse;whiteSpace=wrap;html=1;aspect=fixed;" vertex="1" parent="M3UdXO_pWs5fciGfKBCQ-147">
          <mxGeometry x="231.99999999999997" y="10" width="40" height="40" as="geometry" />
        </mxCell>
        <mxCell id="M3UdXO_pWs5fciGfKBCQ-153" value="" style="ellipse;whiteSpace=wrap;html=1;aspect=fixed;" vertex="1" parent="M3UdXO_pWs5fciGfKBCQ-147">
          <mxGeometry x="301.59999999999997" y="10" width="40" height="40" as="geometry" />
        </mxCell>
        <mxCell id="M3UdXO_pWs5fciGfKBCQ-154" value="" style="ellipse;whiteSpace=wrap;html=1;aspect=fixed;" vertex="1" parent="M3UdXO_pWs5fciGfKBCQ-147">
          <mxGeometry x="371.2" y="10" width="40" height="40" as="geometry" />
        </mxCell>
        <mxCell id="M3UdXO_pWs5fciGfKBCQ-155" value="" style="ellipse;whiteSpace=wrap;html=1;aspect=fixed;" vertex="1" parent="M3UdXO_pWs5fciGfKBCQ-147">
          <mxGeometry x="440.79999999999995" y="10" width="40" height="40" as="geometry" />
        </mxCell>
        <mxCell id="M3UdXO_pWs5fciGfKBCQ-156" value="" style="ellipse;whiteSpace=wrap;html=1;aspect=fixed;" vertex="1" parent="M3UdXO_pWs5fciGfKBCQ-147">
          <mxGeometry x="510.4" y="10" width="40" height="40" as="geometry" />
        </mxCell>
        <mxCell id="M3UdXO_pWs5fciGfKBCQ-157" value="49" style="text;html=1;strokeColor=none;fillColor=none;align=center;verticalAlign=middle;whiteSpace=wrap;rounded=0;" vertex="1" parent="M3UdXO_pWs5fciGfKBCQ-147">
          <mxGeometry x="8.6" y="15" width="69.6" height="30" as="geometry" />
        </mxCell>
        <mxCell id="M3UdXO_pWs5fciGfKBCQ-158" value="50" style="text;html=1;strokeColor=none;fillColor=none;align=center;verticalAlign=middle;whiteSpace=wrap;rounded=0;" vertex="1" parent="M3UdXO_pWs5fciGfKBCQ-147">
          <mxGeometry x="78.19999999999999" y="15" width="69.6" height="30" as="geometry" />
        </mxCell>
        <mxCell id="M3UdXO_pWs5fciGfKBCQ-159" value="51" style="text;html=1;strokeColor=none;fillColor=none;align=center;verticalAlign=middle;whiteSpace=wrap;rounded=0;" vertex="1" parent="M3UdXO_pWs5fciGfKBCQ-147">
          <mxGeometry x="147.79999999999998" y="15" width="69.6" height="30" as="geometry" />
        </mxCell>
        <mxCell id="M3UdXO_pWs5fciGfKBCQ-160" value="52" style="text;html=1;strokeColor=none;fillColor=none;align=center;verticalAlign=middle;whiteSpace=wrap;rounded=0;" vertex="1" parent="M3UdXO_pWs5fciGfKBCQ-147">
          <mxGeometry x="217.39999999999998" y="15" width="69.6" height="30" as="geometry" />
        </mxCell>
        <mxCell id="M3UdXO_pWs5fciGfKBCQ-161" value="53" style="text;html=1;strokeColor=none;fillColor=none;align=center;verticalAlign=middle;whiteSpace=wrap;rounded=0;" vertex="1" parent="M3UdXO_pWs5fciGfKBCQ-147">
          <mxGeometry x="287" y="15" width="69.6" height="30" as="geometry" />
        </mxCell>
        <mxCell id="M3UdXO_pWs5fciGfKBCQ-162" value="54" style="text;html=1;strokeColor=none;fillColor=none;align=center;verticalAlign=middle;whiteSpace=wrap;rounded=0;" vertex="1" parent="M3UdXO_pWs5fciGfKBCQ-147">
          <mxGeometry x="356.59999999999997" y="15" width="69.6" height="30" as="geometry" />
        </mxCell>
        <mxCell id="M3UdXO_pWs5fciGfKBCQ-163" value="55" style="text;html=1;strokeColor=none;fillColor=none;align=center;verticalAlign=middle;whiteSpace=wrap;rounded=0;" vertex="1" parent="M3UdXO_pWs5fciGfKBCQ-147">
          <mxGeometry x="426.2" y="15" width="69.6" height="30" as="geometry" />
        </mxCell>
        <mxCell id="M3UdXO_pWs5fciGfKBCQ-164" value="56" style="text;html=1;strokeColor=none;fillColor=none;align=center;verticalAlign=middle;whiteSpace=wrap;rounded=0;" vertex="1" parent="M3UdXO_pWs5fciGfKBCQ-147">
          <mxGeometry x="495.79999999999995" y="15" width="69.6" height="30" as="geometry" />
        </mxCell>
        <mxCell id="M3UdXO_pWs5fciGfKBCQ-166" value="" style="group" vertex="1" connectable="0" parent="1">
          <mxGeometry x="599" y="580" width="580" height="60" as="geometry" />
        </mxCell>
        <mxCell id="M3UdXO_pWs5fciGfKBCQ-167" value="" style="rounded=0;whiteSpace=wrap;html=1;" vertex="1" parent="M3UdXO_pWs5fciGfKBCQ-166">
          <mxGeometry width="580" height="60" as="geometry" />
        </mxCell>
        <mxCell id="M3UdXO_pWs5fciGfKBCQ-168" value="" style="ellipse;whiteSpace=wrap;html=1;aspect=fixed;" vertex="1" parent="M3UdXO_pWs5fciGfKBCQ-166">
          <mxGeometry x="23.2" y="10" width="40" height="40" as="geometry" />
        </mxCell>
        <mxCell id="M3UdXO_pWs5fciGfKBCQ-169" value="" style="ellipse;whiteSpace=wrap;html=1;aspect=fixed;" vertex="1" parent="M3UdXO_pWs5fciGfKBCQ-166">
          <mxGeometry x="92.8" y="10" width="40" height="40" as="geometry" />
        </mxCell>
        <mxCell id="M3UdXO_pWs5fciGfKBCQ-170" value="" style="ellipse;whiteSpace=wrap;html=1;aspect=fixed;" vertex="1" parent="M3UdXO_pWs5fciGfKBCQ-166">
          <mxGeometry x="162.39999999999998" y="10" width="40" height="40" as="geometry" />
        </mxCell>
        <mxCell id="M3UdXO_pWs5fciGfKBCQ-171" value="" style="ellipse;whiteSpace=wrap;html=1;aspect=fixed;" vertex="1" parent="M3UdXO_pWs5fciGfKBCQ-166">
          <mxGeometry x="231.99999999999997" y="10" width="40" height="40" as="geometry" />
        </mxCell>
        <mxCell id="M3UdXO_pWs5fciGfKBCQ-172" value="" style="ellipse;whiteSpace=wrap;html=1;aspect=fixed;" vertex="1" parent="M3UdXO_pWs5fciGfKBCQ-166">
          <mxGeometry x="301.59999999999997" y="10" width="40" height="40" as="geometry" />
        </mxCell>
        <mxCell id="M3UdXO_pWs5fciGfKBCQ-173" value="" style="ellipse;whiteSpace=wrap;html=1;aspect=fixed;" vertex="1" parent="M3UdXO_pWs5fciGfKBCQ-166">
          <mxGeometry x="371.2" y="10" width="40" height="40" as="geometry" />
        </mxCell>
        <mxCell id="M3UdXO_pWs5fciGfKBCQ-174" value="" style="ellipse;whiteSpace=wrap;html=1;aspect=fixed;" vertex="1" parent="M3UdXO_pWs5fciGfKBCQ-166">
          <mxGeometry x="440.79999999999995" y="10" width="40" height="40" as="geometry" />
        </mxCell>
        <mxCell id="M3UdXO_pWs5fciGfKBCQ-175" value="" style="ellipse;whiteSpace=wrap;html=1;aspect=fixed;" vertex="1" parent="M3UdXO_pWs5fciGfKBCQ-166">
          <mxGeometry x="510.4" y="10" width="40" height="40" as="geometry" />
        </mxCell>
        <mxCell id="M3UdXO_pWs5fciGfKBCQ-176" value="73" style="text;html=1;strokeColor=none;fillColor=none;align=center;verticalAlign=middle;whiteSpace=wrap;rounded=0;" vertex="1" parent="M3UdXO_pWs5fciGfKBCQ-166">
          <mxGeometry x="8.6" y="15" width="69.6" height="30" as="geometry" />
        </mxCell>
        <mxCell id="M3UdXO_pWs5fciGfKBCQ-177" value="74" style="text;html=1;strokeColor=none;fillColor=none;align=center;verticalAlign=middle;whiteSpace=wrap;rounded=0;" vertex="1" parent="M3UdXO_pWs5fciGfKBCQ-166">
          <mxGeometry x="78.19999999999999" y="15" width="69.6" height="30" as="geometry" />
        </mxCell>
        <mxCell id="M3UdXO_pWs5fciGfKBCQ-178" value="75" style="text;html=1;strokeColor=none;fillColor=none;align=center;verticalAlign=middle;whiteSpace=wrap;rounded=0;" vertex="1" parent="M3UdXO_pWs5fciGfKBCQ-166">
          <mxGeometry x="150.79999999999998" y="15" width="69.6" height="30" as="geometry" />
        </mxCell>
        <mxCell id="M3UdXO_pWs5fciGfKBCQ-179" value="76" style="text;html=1;strokeColor=none;fillColor=none;align=center;verticalAlign=middle;whiteSpace=wrap;rounded=0;" vertex="1" parent="M3UdXO_pWs5fciGfKBCQ-166">
          <mxGeometry x="217.39999999999998" y="15" width="69.6" height="30" as="geometry" />
        </mxCell>
        <mxCell id="M3UdXO_pWs5fciGfKBCQ-180" value="77" style="text;html=1;strokeColor=none;fillColor=none;align=center;verticalAlign=middle;whiteSpace=wrap;rounded=0;" vertex="1" parent="M3UdXO_pWs5fciGfKBCQ-166">
          <mxGeometry x="287" y="15" width="69.6" height="30" as="geometry" />
        </mxCell>
        <mxCell id="M3UdXO_pWs5fciGfKBCQ-181" value="78" style="text;html=1;strokeColor=none;fillColor=none;align=center;verticalAlign=middle;whiteSpace=wrap;rounded=0;" vertex="1" parent="M3UdXO_pWs5fciGfKBCQ-166">
          <mxGeometry x="356.59999999999997" y="15" width="69.6" height="30" as="geometry" />
        </mxCell>
        <mxCell id="M3UdXO_pWs5fciGfKBCQ-182" value="79" style="text;html=1;strokeColor=none;fillColor=none;align=center;verticalAlign=middle;whiteSpace=wrap;rounded=0;" vertex="1" parent="M3UdXO_pWs5fciGfKBCQ-166">
          <mxGeometry x="426.2" y="15" width="69.6" height="30" as="geometry" />
        </mxCell>
        <mxCell id="M3UdXO_pWs5fciGfKBCQ-183" value="80" style="text;html=1;strokeColor=none;fillColor=none;align=center;verticalAlign=middle;whiteSpace=wrap;rounded=0;" vertex="1" parent="M3UdXO_pWs5fciGfKBCQ-166">
          <mxGeometry x="495.79999999999995" y="15" width="69.6" height="30" as="geometry" />
        </mxCell>
        <mxCell id="M3UdXO_pWs5fciGfKBCQ-305" value="" style="group;movable=1;resizable=1;rotatable=1;deletable=1;editable=1;locked=0;connectable=1;" vertex="1" connectable="0" parent="1">
          <mxGeometry x="590" y="40" width="311" height="60" as="geometry" />
        </mxCell>
        <mxCell id="M3UdXO_pWs5fciGfKBCQ-185" value="" style="rounded=0;whiteSpace=wrap;html=1;movable=1;resizable=1;rotatable=1;deletable=1;editable=1;locked=0;connectable=1;" vertex="1" parent="M3UdXO_pWs5fciGfKBCQ-305">
          <mxGeometry x="12.999999999999998" width="283" height="60" as="geometry" />
        </mxCell>
        <mxCell id="M3UdXO_pWs5fciGfKBCQ-204" value="" style="group;movable=1;resizable=1;rotatable=1;deletable=1;editable=1;locked=0;connectable=1;" vertex="1" connectable="0" parent="M3UdXO_pWs5fciGfKBCQ-305">
          <mxGeometry x="15.999999999999998" y="12.5" width="30" height="15" as="geometry" />
        </mxCell>
        <mxCell id="M3UdXO_pWs5fciGfKBCQ-202" value="" style="rounded=0;whiteSpace=wrap;html=1;movable=1;resizable=1;rotatable=1;deletable=1;editable=1;locked=0;connectable=1;" vertex="1" parent="M3UdXO_pWs5fciGfKBCQ-204">
          <mxGeometry width="15" height="15" as="geometry" />
        </mxCell>
        <mxCell id="M3UdXO_pWs5fciGfKBCQ-203" value="" style="rounded=0;whiteSpace=wrap;html=1;movable=1;resizable=1;rotatable=1;deletable=1;editable=1;locked=0;connectable=1;" vertex="1" parent="M3UdXO_pWs5fciGfKBCQ-204">
          <mxGeometry x="15" width="15" height="15" as="geometry" />
        </mxCell>
        <mxCell id="M3UdXO_pWs5fciGfKBCQ-208" value="" style="group;movable=1;resizable=1;rotatable=1;deletable=1;editable=1;locked=0;connectable=1;" vertex="1" connectable="0" parent="M3UdXO_pWs5fciGfKBCQ-305">
          <mxGeometry x="60.99999999999999" y="12.5" width="30" height="15" as="geometry" />
        </mxCell>
        <mxCell id="M3UdXO_pWs5fciGfKBCQ-209" value="" style="rounded=0;whiteSpace=wrap;html=1;movable=1;resizable=1;rotatable=1;deletable=1;editable=1;locked=0;connectable=1;" vertex="1" parent="M3UdXO_pWs5fciGfKBCQ-208">
          <mxGeometry width="15" height="15" as="geometry" />
        </mxCell>
        <mxCell id="M3UdXO_pWs5fciGfKBCQ-210" value="" style="rounded=0;whiteSpace=wrap;html=1;movable=1;resizable=1;rotatable=1;deletable=1;editable=1;locked=0;connectable=1;" vertex="1" parent="M3UdXO_pWs5fciGfKBCQ-208">
          <mxGeometry x="15" width="15" height="15" as="geometry" />
        </mxCell>
        <mxCell id="M3UdXO_pWs5fciGfKBCQ-211" value="" style="group;movable=1;resizable=1;rotatable=1;deletable=1;editable=1;locked=0;connectable=1;" vertex="1" connectable="0" parent="M3UdXO_pWs5fciGfKBCQ-305">
          <mxGeometry x="82.99999999999999" y="27.5" width="30" height="15" as="geometry" />
        </mxCell>
        <mxCell id="M3UdXO_pWs5fciGfKBCQ-212" value="" style="rounded=0;whiteSpace=wrap;html=1;movable=1;resizable=1;rotatable=1;deletable=1;editable=1;locked=0;connectable=1;" vertex="1" parent="M3UdXO_pWs5fciGfKBCQ-211">
          <mxGeometry width="15" height="15" as="geometry" />
        </mxCell>
        <mxCell id="M3UdXO_pWs5fciGfKBCQ-213" value="" style="rounded=0;whiteSpace=wrap;html=1;movable=1;resizable=1;rotatable=1;deletable=1;editable=1;locked=0;connectable=1;" vertex="1" parent="M3UdXO_pWs5fciGfKBCQ-211">
          <mxGeometry x="15" width="15" height="15" as="geometry" />
        </mxCell>
        <mxCell id="M3UdXO_pWs5fciGfKBCQ-214" value="" style="group;movable=1;resizable=1;rotatable=1;deletable=1;editable=1;locked=0;connectable=1;" vertex="1" connectable="0" parent="M3UdXO_pWs5fciGfKBCQ-305">
          <mxGeometry x="105.99999999999999" y="12.5" width="30" height="15" as="geometry" />
        </mxCell>
        <mxCell id="M3UdXO_pWs5fciGfKBCQ-215" value="" style="rounded=0;whiteSpace=wrap;html=1;movable=1;resizable=1;rotatable=1;deletable=1;editable=1;locked=0;connectable=1;" vertex="1" parent="M3UdXO_pWs5fciGfKBCQ-214">
          <mxGeometry width="15" height="15" as="geometry" />
        </mxCell>
        <mxCell id="M3UdXO_pWs5fciGfKBCQ-216" value="" style="rounded=0;whiteSpace=wrap;html=1;movable=1;resizable=1;rotatable=1;deletable=1;editable=1;locked=0;connectable=1;" vertex="1" parent="M3UdXO_pWs5fciGfKBCQ-214">
          <mxGeometry x="15" width="15" height="15" as="geometry" />
        </mxCell>
        <mxCell id="M3UdXO_pWs5fciGfKBCQ-218" value="" style="group;movable=1;resizable=1;rotatable=1;deletable=1;editable=1;locked=0;connectable=1;" vertex="1" connectable="0" parent="M3UdXO_pWs5fciGfKBCQ-305">
          <mxGeometry x="128.99999999999997" y="27.5" width="30" height="15" as="geometry" />
        </mxCell>
        <mxCell id="M3UdXO_pWs5fciGfKBCQ-219" value="" style="rounded=0;whiteSpace=wrap;html=1;movable=1;resizable=1;rotatable=1;deletable=1;editable=1;locked=0;connectable=1;" vertex="1" parent="M3UdXO_pWs5fciGfKBCQ-218">
          <mxGeometry width="15" height="15" as="geometry" />
        </mxCell>
        <mxCell id="M3UdXO_pWs5fciGfKBCQ-220" value="" style="rounded=0;whiteSpace=wrap;html=1;movable=1;resizable=1;rotatable=1;deletable=1;editable=1;locked=0;connectable=1;" vertex="1" parent="M3UdXO_pWs5fciGfKBCQ-218">
          <mxGeometry x="15" width="15" height="15" as="geometry" />
        </mxCell>
        <mxCell id="M3UdXO_pWs5fciGfKBCQ-257" value="1" style="text;html=1;strokeColor=none;fillColor=none;align=center;verticalAlign=middle;whiteSpace=wrap;rounded=0;movable=1;resizable=1;rotatable=1;deletable=1;editable=1;locked=0;connectable=1;" vertex="1" parent="M3UdXO_pWs5fciGfKBCQ-305">
          <mxGeometry y="20" width="60" height="30" as="geometry" />
        </mxCell>
        <mxCell id="M3UdXO_pWs5fciGfKBCQ-258" value="2" style="text;html=1;strokeColor=none;fillColor=none;align=center;verticalAlign=middle;whiteSpace=wrap;rounded=0;movable=1;resizable=1;rotatable=1;deletable=1;editable=1;locked=0;connectable=1;" vertex="1" parent="M3UdXO_pWs5fciGfKBCQ-305">
          <mxGeometry x="23.999999999999996" y="5" width="60" height="30" as="geometry" />
        </mxCell>
        <mxCell id="M3UdXO_pWs5fciGfKBCQ-260" value="4" style="text;html=1;strokeColor=none;fillColor=none;align=center;verticalAlign=middle;whiteSpace=wrap;rounded=0;movable=1;resizable=1;rotatable=1;deletable=1;editable=1;locked=0;connectable=1;" vertex="1" parent="M3UdXO_pWs5fciGfKBCQ-305">
          <mxGeometry x="67.99999999999999" y="5" width="60" height="30" as="geometry" />
        </mxCell>
        <mxCell id="M3UdXO_pWs5fciGfKBCQ-261" value="5" style="text;html=1;strokeColor=none;fillColor=none;align=center;verticalAlign=middle;whiteSpace=wrap;rounded=0;movable=1;resizable=1;rotatable=1;deletable=1;editable=1;locked=0;connectable=1;" vertex="1" parent="M3UdXO_pWs5fciGfKBCQ-305">
          <mxGeometry x="91" y="20" width="60" height="30" as="geometry" />
        </mxCell>
        <mxCell id="M3UdXO_pWs5fciGfKBCQ-262" value="6" style="text;html=1;strokeColor=none;fillColor=none;align=center;verticalAlign=middle;whiteSpace=wrap;rounded=0;movable=1;resizable=1;rotatable=1;deletable=1;editable=1;locked=0;connectable=1;" vertex="1" parent="M3UdXO_pWs5fciGfKBCQ-305">
          <mxGeometry x="113.99999999999999" y="5" width="60" height="30" as="geometry" />
        </mxCell>
        <mxCell id="M3UdXO_pWs5fciGfKBCQ-263" value="7" style="text;html=1;strokeColor=none;fillColor=none;align=center;verticalAlign=middle;whiteSpace=wrap;rounded=0;movable=1;resizable=1;rotatable=1;deletable=1;editable=1;locked=0;connectable=1;" vertex="1" parent="M3UdXO_pWs5fciGfKBCQ-305">
          <mxGeometry x="137" y="21" width="60" height="30" as="geometry" />
        </mxCell>
        <mxCell id="M3UdXO_pWs5fciGfKBCQ-264" value="8" style="text;html=1;strokeColor=none;fillColor=none;align=center;verticalAlign=middle;whiteSpace=wrap;rounded=0;movable=1;resizable=1;rotatable=1;deletable=1;editable=1;locked=0;connectable=1;" vertex="1" parent="M3UdXO_pWs5fciGfKBCQ-305">
          <mxGeometry x="158.99999999999997" y="6" width="60" height="30" as="geometry" />
        </mxCell>
        <mxCell id="M3UdXO_pWs5fciGfKBCQ-265" value="9" style="text;html=1;strokeColor=none;fillColor=none;align=center;verticalAlign=middle;whiteSpace=wrap;rounded=0;movable=1;resizable=1;rotatable=1;deletable=1;editable=1;locked=0;connectable=1;" vertex="1" parent="M3UdXO_pWs5fciGfKBCQ-305">
          <mxGeometry x="180.99999999999997" y="21" width="60" height="30" as="geometry" />
        </mxCell>
        <mxCell id="M3UdXO_pWs5fciGfKBCQ-267" value="11" style="text;html=1;strokeColor=none;fillColor=none;align=center;verticalAlign=middle;whiteSpace=wrap;rounded=0;movable=1;resizable=1;rotatable=1;deletable=1;editable=1;locked=0;connectable=1;" vertex="1" parent="M3UdXO_pWs5fciGfKBCQ-305">
          <mxGeometry x="225.99999999999997" y="22" width="60" height="30" as="geometry" />
        </mxCell>
        <mxCell id="M3UdXO_pWs5fciGfKBCQ-268" value="12" style="text;html=1;strokeColor=none;fillColor=none;align=center;verticalAlign=middle;whiteSpace=wrap;rounded=0;movable=1;resizable=1;rotatable=1;deletable=1;editable=1;locked=0;connectable=1;" vertex="1" parent="M3UdXO_pWs5fciGfKBCQ-305">
          <mxGeometry x="251" y="5" width="60" height="30" as="geometry" />
        </mxCell>
        <mxCell id="M3UdXO_pWs5fciGfKBCQ-259" value="3" style="text;html=1;strokeColor=none;fillColor=none;align=center;verticalAlign=middle;whiteSpace=wrap;rounded=0;movable=1;resizable=1;rotatable=1;deletable=1;editable=1;locked=0;connectable=1;" vertex="1" parent="M3UdXO_pWs5fciGfKBCQ-305">
          <mxGeometry x="45.99999999999999" y="21" width="60" height="30" as="geometry" />
        </mxCell>
        <mxCell id="M3UdXO_pWs5fciGfKBCQ-266" value="10" style="text;html=1;strokeColor=none;fillColor=none;align=center;verticalAlign=middle;whiteSpace=wrap;rounded=0;movable=1;resizable=1;rotatable=1;deletable=1;editable=1;locked=0;connectable=1;" vertex="1" parent="M3UdXO_pWs5fciGfKBCQ-305">
          <mxGeometry x="201.99999999999997" y="5" width="60" height="30" as="geometry" />
        </mxCell>
        <mxCell id="M3UdXO_pWs5fciGfKBCQ-271" value="" style="group;movable=1;resizable=1;rotatable=1;deletable=1;editable=1;locked=0;connectable=1;" vertex="1" connectable="0" parent="M3UdXO_pWs5fciGfKBCQ-305">
          <mxGeometry x="38.99999999999999" y="27.5" width="30" height="15" as="geometry" />
        </mxCell>
        <mxCell id="M3UdXO_pWs5fciGfKBCQ-272" value="" style="rounded=0;whiteSpace=wrap;html=1;movable=1;resizable=1;rotatable=1;deletable=1;editable=1;locked=0;connectable=1;" vertex="1" parent="M3UdXO_pWs5fciGfKBCQ-271">
          <mxGeometry width="15" height="15" as="geometry" />
        </mxCell>
        <mxCell id="M3UdXO_pWs5fciGfKBCQ-273" value="" style="rounded=0;whiteSpace=wrap;html=1;movable=1;resizable=1;rotatable=1;deletable=1;editable=1;locked=0;connectable=1;" vertex="1" parent="M3UdXO_pWs5fciGfKBCQ-271">
          <mxGeometry x="15" width="15" height="15" as="geometry" />
        </mxCell>
        <mxCell id="M3UdXO_pWs5fciGfKBCQ-286" value="" style="group;movable=1;resizable=1;rotatable=1;deletable=1;editable=1;locked=0;connectable=1;" vertex="1" connectable="0" parent="M3UdXO_pWs5fciGfKBCQ-305">
          <mxGeometry x="152" y="13" width="30" height="15" as="geometry" />
        </mxCell>
        <mxCell id="M3UdXO_pWs5fciGfKBCQ-287" value="" style="rounded=0;whiteSpace=wrap;html=1;movable=1;resizable=1;rotatable=1;deletable=1;editable=1;locked=0;connectable=1;" vertex="1" parent="M3UdXO_pWs5fciGfKBCQ-286">
          <mxGeometry width="15" height="15" as="geometry" />
        </mxCell>
        <mxCell id="M3UdXO_pWs5fciGfKBCQ-288" value="" style="rounded=0;whiteSpace=wrap;html=1;movable=1;resizable=1;rotatable=1;deletable=1;editable=1;locked=0;connectable=1;" vertex="1" parent="M3UdXO_pWs5fciGfKBCQ-286">
          <mxGeometry x="15" width="15" height="15" as="geometry" />
        </mxCell>
        <mxCell id="M3UdXO_pWs5fciGfKBCQ-289" value="" style="group;movable=1;resizable=1;rotatable=1;deletable=1;editable=1;locked=0;connectable=1;" vertex="1" connectable="0" parent="M3UdXO_pWs5fciGfKBCQ-305">
          <mxGeometry x="195.99999999999997" y="13" width="30" height="15" as="geometry" />
        </mxCell>
        <mxCell id="M3UdXO_pWs5fciGfKBCQ-290" value="" style="rounded=0;whiteSpace=wrap;html=1;movable=1;resizable=1;rotatable=1;deletable=1;editable=1;locked=0;connectable=1;" vertex="1" parent="M3UdXO_pWs5fciGfKBCQ-289">
          <mxGeometry width="15" height="15" as="geometry" />
        </mxCell>
        <mxCell id="M3UdXO_pWs5fciGfKBCQ-291" value="" style="rounded=0;whiteSpace=wrap;html=1;movable=1;resizable=1;rotatable=1;deletable=1;editable=1;locked=0;connectable=1;" vertex="1" parent="M3UdXO_pWs5fciGfKBCQ-289">
          <mxGeometry x="15" width="15" height="15" as="geometry" />
        </mxCell>
        <mxCell id="M3UdXO_pWs5fciGfKBCQ-292" value="" style="group;movable=1;resizable=1;rotatable=1;deletable=1;editable=1;locked=0;connectable=1;" vertex="1" connectable="0" parent="M3UdXO_pWs5fciGfKBCQ-305">
          <mxGeometry x="217.99999999999997" y="28" width="30" height="15" as="geometry" />
        </mxCell>
        <mxCell id="M3UdXO_pWs5fciGfKBCQ-293" value="" style="rounded=0;whiteSpace=wrap;html=1;movable=1;resizable=1;rotatable=1;deletable=1;editable=1;locked=0;connectable=1;" vertex="1" parent="M3UdXO_pWs5fciGfKBCQ-292">
          <mxGeometry width="15" height="15" as="geometry" />
        </mxCell>
        <mxCell id="M3UdXO_pWs5fciGfKBCQ-294" value="" style="rounded=0;whiteSpace=wrap;html=1;movable=1;resizable=1;rotatable=1;deletable=1;editable=1;locked=0;connectable=1;" vertex="1" parent="M3UdXO_pWs5fciGfKBCQ-292">
          <mxGeometry x="15" width="15" height="15" as="geometry" />
        </mxCell>
        <mxCell id="M3UdXO_pWs5fciGfKBCQ-295" value="" style="group;movable=1;resizable=1;rotatable=1;deletable=1;editable=1;locked=0;connectable=1;" vertex="1" connectable="0" parent="M3UdXO_pWs5fciGfKBCQ-305">
          <mxGeometry x="240.99999999999997" y="13" width="30" height="15" as="geometry" />
        </mxCell>
        <mxCell id="M3UdXO_pWs5fciGfKBCQ-296" value="" style="rounded=0;whiteSpace=wrap;html=1;movable=1;resizable=1;rotatable=1;deletable=1;editable=1;locked=0;connectable=1;" vertex="1" parent="M3UdXO_pWs5fciGfKBCQ-295">
          <mxGeometry width="15" height="15" as="geometry" />
        </mxCell>
        <mxCell id="M3UdXO_pWs5fciGfKBCQ-297" value="" style="rounded=0;whiteSpace=wrap;html=1;movable=1;resizable=1;rotatable=1;deletable=1;editable=1;locked=0;connectable=1;" vertex="1" parent="M3UdXO_pWs5fciGfKBCQ-295">
          <mxGeometry x="15" width="15" height="15" as="geometry" />
        </mxCell>
        <mxCell id="M3UdXO_pWs5fciGfKBCQ-298" value="" style="group;movable=1;resizable=1;rotatable=1;deletable=1;editable=1;locked=0;connectable=1;" vertex="1" connectable="0" parent="M3UdXO_pWs5fciGfKBCQ-305">
          <mxGeometry x="264" y="28" width="30" height="15" as="geometry" />
        </mxCell>
        <mxCell id="M3UdXO_pWs5fciGfKBCQ-299" value="" style="rounded=0;whiteSpace=wrap;html=1;movable=1;resizable=1;rotatable=1;deletable=1;editable=1;locked=0;connectable=1;" vertex="1" parent="M3UdXO_pWs5fciGfKBCQ-298">
          <mxGeometry width="15" height="15" as="geometry" />
        </mxCell>
        <mxCell id="M3UdXO_pWs5fciGfKBCQ-300" value="" style="rounded=0;whiteSpace=wrap;html=1;movable=1;resizable=1;rotatable=1;deletable=1;editable=1;locked=0;connectable=1;" vertex="1" parent="M3UdXO_pWs5fciGfKBCQ-298">
          <mxGeometry x="15" width="15" height="15" as="geometry" />
        </mxCell>
        <mxCell id="M3UdXO_pWs5fciGfKBCQ-301" value="" style="group;movable=1;resizable=1;rotatable=1;deletable=1;editable=1;locked=0;connectable=1;" vertex="1" connectable="0" parent="M3UdXO_pWs5fciGfKBCQ-305">
          <mxGeometry x="173.99999999999997" y="28" width="30" height="15" as="geometry" />
        </mxCell>
        <mxCell id="M3UdXO_pWs5fciGfKBCQ-302" value="" style="rounded=0;whiteSpace=wrap;html=1;movable=1;resizable=1;rotatable=1;deletable=1;editable=1;locked=0;connectable=1;" vertex="1" parent="M3UdXO_pWs5fciGfKBCQ-301">
          <mxGeometry width="15" height="15" as="geometry" />
        </mxCell>
        <mxCell id="M3UdXO_pWs5fciGfKBCQ-303" value="" style="rounded=0;whiteSpace=wrap;html=1;movable=1;resizable=1;rotatable=1;deletable=1;editable=1;locked=0;connectable=1;" vertex="1" parent="M3UdXO_pWs5fciGfKBCQ-301">
          <mxGeometry x="15" width="15" height="15" as="geometry" />
        </mxCell>
        <mxCell id="M3UdXO_pWs5fciGfKBCQ-306" value="" style="group;movable=1;resizable=1;rotatable=1;deletable=1;editable=1;locked=0;connectable=1;" vertex="1" connectable="0" parent="1">
          <mxGeometry x="880" y="40" width="311" height="60" as="geometry" />
        </mxCell>
        <mxCell id="M3UdXO_pWs5fciGfKBCQ-307" value="" style="rounded=0;whiteSpace=wrap;html=1;movable=1;resizable=1;rotatable=1;deletable=1;editable=1;locked=0;connectable=1;" vertex="1" parent="M3UdXO_pWs5fciGfKBCQ-306">
          <mxGeometry x="13" width="283" height="60" as="geometry" />
        </mxCell>
        <mxCell id="M3UdXO_pWs5fciGfKBCQ-308" value="" style="group;movable=1;resizable=1;rotatable=1;deletable=1;editable=1;locked=0;connectable=1;" vertex="1" connectable="0" parent="M3UdXO_pWs5fciGfKBCQ-306">
          <mxGeometry x="16" y="12.5" width="30" height="15" as="geometry" />
        </mxCell>
        <mxCell id="M3UdXO_pWs5fciGfKBCQ-309" value="" style="rounded=0;whiteSpace=wrap;html=1;movable=1;resizable=1;rotatable=1;deletable=1;editable=1;locked=0;connectable=1;" vertex="1" parent="M3UdXO_pWs5fciGfKBCQ-308">
          <mxGeometry width="15" height="15" as="geometry" />
        </mxCell>
        <mxCell id="M3UdXO_pWs5fciGfKBCQ-310" value="" style="rounded=0;whiteSpace=wrap;html=1;movable=1;resizable=1;rotatable=1;deletable=1;editable=1;locked=0;connectable=1;" vertex="1" parent="M3UdXO_pWs5fciGfKBCQ-308">
          <mxGeometry x="15" width="15" height="15" as="geometry" />
        </mxCell>
        <mxCell id="M3UdXO_pWs5fciGfKBCQ-311" value="" style="group;movable=1;resizable=1;rotatable=1;deletable=1;editable=1;locked=0;connectable=1;" vertex="1" connectable="0" parent="M3UdXO_pWs5fciGfKBCQ-306">
          <mxGeometry x="61" y="12.5" width="30" height="15" as="geometry" />
        </mxCell>
        <mxCell id="M3UdXO_pWs5fciGfKBCQ-312" value="" style="rounded=0;whiteSpace=wrap;html=1;movable=1;resizable=1;rotatable=1;deletable=1;editable=1;locked=0;connectable=1;" vertex="1" parent="M3UdXO_pWs5fciGfKBCQ-311">
          <mxGeometry width="15" height="15" as="geometry" />
        </mxCell>
        <mxCell id="M3UdXO_pWs5fciGfKBCQ-313" value="" style="rounded=0;whiteSpace=wrap;html=1;movable=1;resizable=1;rotatable=1;deletable=1;editable=1;locked=0;connectable=1;" vertex="1" parent="M3UdXO_pWs5fciGfKBCQ-311">
          <mxGeometry x="15" width="15" height="15" as="geometry" />
        </mxCell>
        <mxCell id="M3UdXO_pWs5fciGfKBCQ-314" value="" style="group;movable=1;resizable=1;rotatable=1;deletable=1;editable=1;locked=0;connectable=1;" vertex="1" connectable="0" parent="M3UdXO_pWs5fciGfKBCQ-306">
          <mxGeometry x="83" y="27.5" width="30" height="15" as="geometry" />
        </mxCell>
        <mxCell id="M3UdXO_pWs5fciGfKBCQ-315" value="" style="rounded=0;whiteSpace=wrap;html=1;movable=1;resizable=1;rotatable=1;deletable=1;editable=1;locked=0;connectable=1;" vertex="1" parent="M3UdXO_pWs5fciGfKBCQ-314">
          <mxGeometry width="15" height="15" as="geometry" />
        </mxCell>
        <mxCell id="M3UdXO_pWs5fciGfKBCQ-316" value="" style="rounded=0;whiteSpace=wrap;html=1;movable=1;resizable=1;rotatable=1;deletable=1;editable=1;locked=0;connectable=1;" vertex="1" parent="M3UdXO_pWs5fciGfKBCQ-314">
          <mxGeometry x="15" width="15" height="15" as="geometry" />
        </mxCell>
        <mxCell id="M3UdXO_pWs5fciGfKBCQ-317" value="" style="group;movable=1;resizable=1;rotatable=1;deletable=1;editable=1;locked=0;connectable=1;" vertex="1" connectable="0" parent="M3UdXO_pWs5fciGfKBCQ-306">
          <mxGeometry x="106" y="12.5" width="30" height="15" as="geometry" />
        </mxCell>
        <mxCell id="M3UdXO_pWs5fciGfKBCQ-318" value="" style="rounded=0;whiteSpace=wrap;html=1;movable=1;resizable=1;rotatable=1;deletable=1;editable=1;locked=0;connectable=1;" vertex="1" parent="M3UdXO_pWs5fciGfKBCQ-317">
          <mxGeometry width="15" height="15" as="geometry" />
        </mxCell>
        <mxCell id="M3UdXO_pWs5fciGfKBCQ-319" value="" style="rounded=0;whiteSpace=wrap;html=1;movable=1;resizable=1;rotatable=1;deletable=1;editable=1;locked=0;connectable=1;" vertex="1" parent="M3UdXO_pWs5fciGfKBCQ-317">
          <mxGeometry x="15" width="15" height="15" as="geometry" />
        </mxCell>
        <mxCell id="M3UdXO_pWs5fciGfKBCQ-320" value="" style="group;movable=1;resizable=1;rotatable=1;deletable=1;editable=1;locked=0;connectable=1;" vertex="1" connectable="0" parent="M3UdXO_pWs5fciGfKBCQ-306">
          <mxGeometry x="129" y="27.5" width="30" height="15" as="geometry" />
        </mxCell>
        <mxCell id="M3UdXO_pWs5fciGfKBCQ-321" value="" style="rounded=0;whiteSpace=wrap;html=1;movable=1;resizable=1;rotatable=1;deletable=1;editable=1;locked=0;connectable=1;" vertex="1" parent="M3UdXO_pWs5fciGfKBCQ-320">
          <mxGeometry width="15" height="15" as="geometry" />
        </mxCell>
        <mxCell id="M3UdXO_pWs5fciGfKBCQ-322" value="" style="rounded=0;whiteSpace=wrap;html=1;movable=1;resizable=1;rotatable=1;deletable=1;editable=1;locked=0;connectable=1;" vertex="1" parent="M3UdXO_pWs5fciGfKBCQ-320">
          <mxGeometry x="15" width="15" height="15" as="geometry" />
        </mxCell>
        <mxCell id="M3UdXO_pWs5fciGfKBCQ-323" value="1" style="text;html=1;strokeColor=none;fillColor=none;align=center;verticalAlign=middle;whiteSpace=wrap;rounded=0;movable=1;resizable=1;rotatable=1;deletable=1;editable=1;locked=0;connectable=1;" vertex="1" parent="M3UdXO_pWs5fciGfKBCQ-306">
          <mxGeometry y="20" width="60" height="30" as="geometry" />
        </mxCell>
        <mxCell id="M3UdXO_pWs5fciGfKBCQ-324" value="2" style="text;html=1;strokeColor=none;fillColor=none;align=center;verticalAlign=middle;whiteSpace=wrap;rounded=0;movable=1;resizable=1;rotatable=1;deletable=1;editable=1;locked=0;connectable=1;" vertex="1" parent="M3UdXO_pWs5fciGfKBCQ-306">
          <mxGeometry x="24" y="5" width="60" height="30" as="geometry" />
        </mxCell>
        <mxCell id="M3UdXO_pWs5fciGfKBCQ-325" value="4" style="text;html=1;strokeColor=none;fillColor=none;align=center;verticalAlign=middle;whiteSpace=wrap;rounded=0;movable=1;resizable=1;rotatable=1;deletable=1;editable=1;locked=0;connectable=1;" vertex="1" parent="M3UdXO_pWs5fciGfKBCQ-306">
          <mxGeometry x="68" y="5" width="60" height="30" as="geometry" />
        </mxCell>
        <mxCell id="M3UdXO_pWs5fciGfKBCQ-326" value="5" style="text;html=1;strokeColor=none;fillColor=none;align=center;verticalAlign=middle;whiteSpace=wrap;rounded=0;movable=1;resizable=1;rotatable=1;deletable=1;editable=1;locked=0;connectable=1;" vertex="1" parent="M3UdXO_pWs5fciGfKBCQ-306">
          <mxGeometry x="91" y="20" width="60" height="30" as="geometry" />
        </mxCell>
        <mxCell id="M3UdXO_pWs5fciGfKBCQ-327" value="6" style="text;html=1;strokeColor=none;fillColor=none;align=center;verticalAlign=middle;whiteSpace=wrap;rounded=0;movable=1;resizable=1;rotatable=1;deletable=1;editable=1;locked=0;connectable=1;" vertex="1" parent="M3UdXO_pWs5fciGfKBCQ-306">
          <mxGeometry x="114" y="5" width="60" height="30" as="geometry" />
        </mxCell>
        <mxCell id="M3UdXO_pWs5fciGfKBCQ-328" value="7" style="text;html=1;strokeColor=none;fillColor=none;align=center;verticalAlign=middle;whiteSpace=wrap;rounded=0;movable=1;resizable=1;rotatable=1;deletable=1;editable=1;locked=0;connectable=1;" vertex="1" parent="M3UdXO_pWs5fciGfKBCQ-306">
          <mxGeometry x="137" y="21" width="60" height="30" as="geometry" />
        </mxCell>
        <mxCell id="M3UdXO_pWs5fciGfKBCQ-329" value="8" style="text;html=1;strokeColor=none;fillColor=none;align=center;verticalAlign=middle;whiteSpace=wrap;rounded=0;movable=1;resizable=1;rotatable=1;deletable=1;editable=1;locked=0;connectable=1;" vertex="1" parent="M3UdXO_pWs5fciGfKBCQ-306">
          <mxGeometry x="159" y="6" width="60" height="30" as="geometry" />
        </mxCell>
        <mxCell id="M3UdXO_pWs5fciGfKBCQ-330" value="9" style="text;html=1;strokeColor=none;fillColor=none;align=center;verticalAlign=middle;whiteSpace=wrap;rounded=0;movable=1;resizable=1;rotatable=1;deletable=1;editable=1;locked=0;connectable=1;" vertex="1" parent="M3UdXO_pWs5fciGfKBCQ-306">
          <mxGeometry x="181" y="21" width="60" height="30" as="geometry" />
        </mxCell>
        <mxCell id="M3UdXO_pWs5fciGfKBCQ-331" value="11" style="text;html=1;strokeColor=none;fillColor=none;align=center;verticalAlign=middle;whiteSpace=wrap;rounded=0;movable=1;resizable=1;rotatable=1;deletable=1;editable=1;locked=0;connectable=1;" vertex="1" parent="M3UdXO_pWs5fciGfKBCQ-306">
          <mxGeometry x="226" y="22" width="60" height="30" as="geometry" />
        </mxCell>
        <mxCell id="M3UdXO_pWs5fciGfKBCQ-332" value="12" style="text;html=1;strokeColor=none;fillColor=none;align=center;verticalAlign=middle;whiteSpace=wrap;rounded=0;movable=1;resizable=1;rotatable=1;deletable=1;editable=1;locked=0;connectable=1;" vertex="1" parent="M3UdXO_pWs5fciGfKBCQ-306">
          <mxGeometry x="251" y="5" width="60" height="30" as="geometry" />
        </mxCell>
        <mxCell id="M3UdXO_pWs5fciGfKBCQ-333" value="3" style="text;html=1;strokeColor=none;fillColor=none;align=center;verticalAlign=middle;whiteSpace=wrap;rounded=0;movable=1;resizable=1;rotatable=1;deletable=1;editable=1;locked=0;connectable=1;" vertex="1" parent="M3UdXO_pWs5fciGfKBCQ-306">
          <mxGeometry x="46" y="21" width="60" height="30" as="geometry" />
        </mxCell>
        <mxCell id="M3UdXO_pWs5fciGfKBCQ-334" value="10" style="text;html=1;strokeColor=none;fillColor=none;align=center;verticalAlign=middle;whiteSpace=wrap;rounded=0;movable=1;resizable=1;rotatable=1;deletable=1;editable=1;locked=0;connectable=1;" vertex="1" parent="M3UdXO_pWs5fciGfKBCQ-306">
          <mxGeometry x="202" y="5" width="60" height="30" as="geometry" />
        </mxCell>
        <mxCell id="M3UdXO_pWs5fciGfKBCQ-335" value="" style="group;movable=1;resizable=1;rotatable=1;deletable=1;editable=1;locked=0;connectable=1;" vertex="1" connectable="0" parent="M3UdXO_pWs5fciGfKBCQ-306">
          <mxGeometry x="39" y="27.5" width="30" height="15" as="geometry" />
        </mxCell>
        <mxCell id="M3UdXO_pWs5fciGfKBCQ-336" value="" style="rounded=0;whiteSpace=wrap;html=1;movable=1;resizable=1;rotatable=1;deletable=1;editable=1;locked=0;connectable=1;" vertex="1" parent="M3UdXO_pWs5fciGfKBCQ-335">
          <mxGeometry width="15" height="15" as="geometry" />
        </mxCell>
        <mxCell id="M3UdXO_pWs5fciGfKBCQ-337" value="" style="rounded=0;whiteSpace=wrap;html=1;movable=1;resizable=1;rotatable=1;deletable=1;editable=1;locked=0;connectable=1;" vertex="1" parent="M3UdXO_pWs5fciGfKBCQ-335">
          <mxGeometry x="15" width="15" height="15" as="geometry" />
        </mxCell>
        <mxCell id="M3UdXO_pWs5fciGfKBCQ-338" value="" style="group;movable=1;resizable=1;rotatable=1;deletable=1;editable=1;locked=0;connectable=1;" vertex="1" connectable="0" parent="M3UdXO_pWs5fciGfKBCQ-306">
          <mxGeometry x="152" y="13" width="30" height="15" as="geometry" />
        </mxCell>
        <mxCell id="M3UdXO_pWs5fciGfKBCQ-339" value="" style="rounded=0;whiteSpace=wrap;html=1;movable=1;resizable=1;rotatable=1;deletable=1;editable=1;locked=0;connectable=1;" vertex="1" parent="M3UdXO_pWs5fciGfKBCQ-338">
          <mxGeometry width="15" height="15" as="geometry" />
        </mxCell>
        <mxCell id="M3UdXO_pWs5fciGfKBCQ-340" value="" style="rounded=0;whiteSpace=wrap;html=1;movable=1;resizable=1;rotatable=1;deletable=1;editable=1;locked=0;connectable=1;" vertex="1" parent="M3UdXO_pWs5fciGfKBCQ-338">
          <mxGeometry x="15" width="15" height="15" as="geometry" />
        </mxCell>
        <mxCell id="M3UdXO_pWs5fciGfKBCQ-341" value="" style="group;movable=1;resizable=1;rotatable=1;deletable=1;editable=1;locked=0;connectable=1;" vertex="1" connectable="0" parent="M3UdXO_pWs5fciGfKBCQ-306">
          <mxGeometry x="196" y="13" width="30" height="15" as="geometry" />
        </mxCell>
        <mxCell id="M3UdXO_pWs5fciGfKBCQ-342" value="" style="rounded=0;whiteSpace=wrap;html=1;movable=1;resizable=1;rotatable=1;deletable=1;editable=1;locked=0;connectable=1;" vertex="1" parent="M3UdXO_pWs5fciGfKBCQ-341">
          <mxGeometry width="15" height="15" as="geometry" />
        </mxCell>
        <mxCell id="M3UdXO_pWs5fciGfKBCQ-343" value="" style="rounded=0;whiteSpace=wrap;html=1;movable=1;resizable=1;rotatable=1;deletable=1;editable=1;locked=0;connectable=1;" vertex="1" parent="M3UdXO_pWs5fciGfKBCQ-341">
          <mxGeometry x="15" width="15" height="15" as="geometry" />
        </mxCell>
        <mxCell id="M3UdXO_pWs5fciGfKBCQ-344" value="" style="group;movable=1;resizable=1;rotatable=1;deletable=1;editable=1;locked=0;connectable=1;" vertex="1" connectable="0" parent="M3UdXO_pWs5fciGfKBCQ-306">
          <mxGeometry x="218" y="28" width="30" height="15" as="geometry" />
        </mxCell>
        <mxCell id="M3UdXO_pWs5fciGfKBCQ-345" value="" style="rounded=0;whiteSpace=wrap;html=1;movable=1;resizable=1;rotatable=1;deletable=1;editable=1;locked=0;connectable=1;" vertex="1" parent="M3UdXO_pWs5fciGfKBCQ-344">
          <mxGeometry width="15" height="15" as="geometry" />
        </mxCell>
        <mxCell id="M3UdXO_pWs5fciGfKBCQ-346" value="" style="rounded=0;whiteSpace=wrap;html=1;movable=1;resizable=1;rotatable=1;deletable=1;editable=1;locked=0;connectable=1;" vertex="1" parent="M3UdXO_pWs5fciGfKBCQ-344">
          <mxGeometry x="15" width="15" height="15" as="geometry" />
        </mxCell>
        <mxCell id="M3UdXO_pWs5fciGfKBCQ-347" value="" style="group;movable=1;resizable=1;rotatable=1;deletable=1;editable=1;locked=0;connectable=1;" vertex="1" connectable="0" parent="M3UdXO_pWs5fciGfKBCQ-306">
          <mxGeometry x="241" y="13" width="30" height="15" as="geometry" />
        </mxCell>
        <mxCell id="M3UdXO_pWs5fciGfKBCQ-348" value="" style="rounded=0;whiteSpace=wrap;html=1;movable=1;resizable=1;rotatable=1;deletable=1;editable=1;locked=0;connectable=1;" vertex="1" parent="M3UdXO_pWs5fciGfKBCQ-347">
          <mxGeometry width="15" height="15" as="geometry" />
        </mxCell>
        <mxCell id="M3UdXO_pWs5fciGfKBCQ-349" value="" style="rounded=0;whiteSpace=wrap;html=1;movable=1;resizable=1;rotatable=1;deletable=1;editable=1;locked=0;connectable=1;" vertex="1" parent="M3UdXO_pWs5fciGfKBCQ-347">
          <mxGeometry x="15" width="15" height="15" as="geometry" />
        </mxCell>
        <mxCell id="M3UdXO_pWs5fciGfKBCQ-350" value="" style="group;movable=1;resizable=1;rotatable=1;deletable=1;editable=1;locked=0;connectable=1;" vertex="1" connectable="0" parent="M3UdXO_pWs5fciGfKBCQ-306">
          <mxGeometry x="264" y="28" width="30" height="15" as="geometry" />
        </mxCell>
        <mxCell id="M3UdXO_pWs5fciGfKBCQ-351" value="" style="rounded=0;whiteSpace=wrap;html=1;movable=1;resizable=1;rotatable=1;deletable=1;editable=1;locked=0;connectable=1;" vertex="1" parent="M3UdXO_pWs5fciGfKBCQ-350">
          <mxGeometry width="15" height="15" as="geometry" />
        </mxCell>
        <mxCell id="M3UdXO_pWs5fciGfKBCQ-352" value="" style="rounded=0;whiteSpace=wrap;html=1;movable=1;resizable=1;rotatable=1;deletable=1;editable=1;locked=0;connectable=1;" vertex="1" parent="M3UdXO_pWs5fciGfKBCQ-350">
          <mxGeometry x="15" width="15" height="15" as="geometry" />
        </mxCell>
        <mxCell id="M3UdXO_pWs5fciGfKBCQ-353" value="" style="group;movable=1;resizable=1;rotatable=1;deletable=1;editable=1;locked=0;connectable=1;" vertex="1" connectable="0" parent="M3UdXO_pWs5fciGfKBCQ-306">
          <mxGeometry x="174" y="28" width="30" height="15" as="geometry" />
        </mxCell>
        <mxCell id="M3UdXO_pWs5fciGfKBCQ-354" value="" style="rounded=0;whiteSpace=wrap;html=1;movable=1;resizable=1;rotatable=1;deletable=1;editable=1;locked=0;connectable=1;" vertex="1" parent="M3UdXO_pWs5fciGfKBCQ-353">
          <mxGeometry width="15" height="15" as="geometry" />
        </mxCell>
        <mxCell id="M3UdXO_pWs5fciGfKBCQ-355" value="" style="rounded=0;whiteSpace=wrap;html=1;movable=1;resizable=1;rotatable=1;deletable=1;editable=1;locked=0;connectable=1;" vertex="1" parent="M3UdXO_pWs5fciGfKBCQ-353">
          <mxGeometry x="15" width="15" height="15" as="geometry" />
        </mxCell>
        <mxCell id="M3UdXO_pWs5fciGfKBCQ-19" value="8" style="text;html=1;strokeColor=none;fillColor=none;align=center;verticalAlign=middle;whiteSpace=wrap;rounded=0;" vertex="1" parent="1">
          <mxGeometry x="1095.8" y="115" width="69.6" height="30" as="geometry" />
        </mxCell>
        <mxCell id="M3UdXO_pWs5fciGfKBCQ-34" value="13" style="text;html=1;strokeColor=none;fillColor=none;align=center;verticalAlign=middle;whiteSpace=wrap;rounded=0;" vertex="1" parent="1">
          <mxGeometry x="290" y="70" width="60" height="30" as="geometry" />
        </mxCell>
        <mxCell id="M3UdXO_pWs5fciGfKBCQ-35" value="14" style="text;html=1;strokeColor=none;fillColor=none;align=center;verticalAlign=middle;whiteSpace=wrap;rounded=0;" vertex="1" parent="1">
          <mxGeometry x="370" y="70" width="50" as="geometry" />
        </mxCell>
      </root>
    </mxGraphModel>
  </diagram>
</mxfile>
